<?xml version="1.0" standalone="no"?>
<!DOCTYPE svg PUBLIC "-//W3C//DTD SVG 1.1//EN" "http://www.w3.org/Graphics/SVG/1.1/DTD/svg11.dtd" >
<svg xmlns="http://www.w3.org/2000/svg" xmlns:xlink="http://www.w3.org/1999/xlink" version="1.1">
<metadata></metadata>
<defs>
<font id="arial_rounded_mt_stdregular" horiz-adv-x="1153" >
<font-face units-per-em="2048" ascent="1511" descent="-537" />
<missing-glyph horiz-adv-x="577" />
<glyph unicode="&#xfb01;" horiz-adv-x="1087" d="M-2 997q0 64 100 64h92v100q0 161 48 225q77 105 243 105q85 0 152 -23q45 -18 45 -63q0 -28 -17.5 -48t-42.5 -20q-7 0 -47.5 5.5t-46.5 5.5q-51 0 -83 -13t-47.5 -42.5t-20 -62t-4.5 -85.5v-84h112q21 0 35 -1.5t33 -7t29 -19.5t10 -36q0 -24 -10.5 -39t-30.5 -20.5 t-32.5 -6.5t-33.5 -1h-112v-809q0 -51 -5 -78t-22 -43q-25 -25 -61 -25q-38 0 -66 25q-17 16 -21 41.5t-4 79.5v809h-96q-96 0 -96 67zM743 1362q0 40 30 69t71 29t69.5 -29t28.5 -69q0 -41 -28.5 -70.5t-69.5 -29.5t-71 29.5t-30 70.5zM756 121v819q0 41 0.5 55.5t5.5 33 t16 30.5q30 26 66 26q26 0 44 -10t26.5 -22.5t13.5 -36t5.5 -37.5t0.5 -39v-819q0 -60 -8 -88q-7 -28 -31.5 -43t-52.5 -15q-30 0 -49 12.5t-26.5 38.5t-9 44t-1.5 51z" />
<glyph unicode="&#xfb02;" horiz-adv-x="1087" d="M-4 997q0 64 102 64h92v100q0 159 46 225q71 105 245 105q88 0 150 -23q47 -19 47 -63q0 -28 -17.5 -48t-42.5 -20q-8 0 -48.5 5.5t-47.5 5.5q-41 0 -69.5 -9.5t-44.5 -25t-25 -43.5t-11.5 -55.5t-2.5 -69.5v-84h110q21 0 35 -1.5t34 -7t30 -19.5t10 -36q0 -24 -10.5 -39 t-31 -20.5t-33 -6.5t-34.5 -1h-110v-809q0 -51 -5 -78t-22 -43q-25 -25 -63 -25q-39 0 -64 25q-17 17 -21 42.5t-4 78.5v809h-96q-98 0 -98 67zM758 121v1222q0 41 0.5 56t6 33.5t17.5 29.5q25 29 64 29q37 0 67 -27q16 -17 19.5 -41.5t3.5 -79.5v-1222q0 -55 -3.5 -78.5 t-19.5 -40.5q-31 -27 -65 -27q-26 0 -44 9.5t-27 21.5t-13.5 35t-5 37.5t-0.5 42.5z" />
<glyph horiz-adv-x="0" />
<glyph horiz-adv-x="682" />
<glyph unicode=" "  horiz-adv-x="577" />
<glyph unicode="&#x09;" horiz-adv-x="577" />
<glyph unicode="&#xa0;" horiz-adv-x="577" />
<glyph unicode="!" horiz-adv-x="681" d="M227 88q0 47 33.5 80t79.5 33t79.5 -33t33.5 -80q0 -46 -33.5 -79.5t-79.5 -33.5q-47 0 -80 33.5t-33 79.5zM242 1128q-9 221 2 279q6 33 25.5 53t36.5 25.5t34 5.5q30 0 59.5 -19t38.5 -65q5 -51 4.5 -139.5t-2.5 -139.5l-30 -596q-2 -33 -4 -48t-8.5 -37t-20 -31.5 t-35.5 -9.5t-36.5 9.5t-21 31.5t-8.5 37t-4 48z" />
<glyph unicode="&#x22;" horiz-adv-x="724" d="M94 1227v239h205v-239l-45 -281h-111zM426 1227v239h205v-239l-47 -281h-109z" />
<glyph unicode="#" horiz-adv-x="1130" d="M20 471q0 23 5.5 38t11 22.5t22.5 11t26.5 4t35.5 0.5h98l76 368h-174q-23 0 -32 0.5t-26 3.5t-23.5 9.5t-13 20.5t-6.5 34q0 28 6 45t22 23.5t29.5 8t43.5 1.5h203l69 342q7 31 10 42.5t12 25t23 17t39 3.5q36 0 53 -17.5t17 -39.5q0 -10 -8 -54l-64 -319h313l70 342 q7 31 10 42.5t12.5 25t24 17t39.5 3.5q36 0 53 -17.5t17 -39.5q0 -5 -1 -11t-4 -18t-5 -25l-64 -319h74q27 0 40 -1t29.5 -7t23.5 -21t7 -39q0 -29 -5.5 -45.5t-22 -23.5t-29 -8t-43.5 -1h-105l-73 -368h178q24 0 32.5 -0.5t25.5 -3.5t23.5 -9.5t12.5 -19.5t6 -33 q0 -24 -5 -39.5t-11.5 -23.5t-22 -12t-26.5 -4.5t-35 -0.5h-209l-68 -340q-10 -52 -24 -69t-62 -17q-36 0 -52.5 17.5t-16.5 40.5q0 18 8 53l65 315h-315l-70 -340q-6 -29 -9 -41t-12 -25t-23.5 -16.5t-39.5 -3.5q-36 0 -52.5 17.5t-16.5 40.5q0 18 8 53l65 315h-69 q-26 0 -39 1.5t-30 7.5t-24.5 21t-7.5 40zM371 547h313l76 368h-316z" />
<glyph unicode="$" d="M78 379q0 37 26.5 61.5t59.5 24.5q22 0 38.5 -7.5t25.5 -21.5t13.5 -23t8.5 -24q18 -58 37.5 -99.5t50.5 -79.5t76.5 -61t107.5 -32v569q-162 41 -250 92q-49 28 -83.5 69.5t-50.5 87t-22.5 83t-6.5 74.5q0 109 45 190t110 125q96 66 247 81q7 1 11 1v106q0 78 53 78 q52 0 52 -76v-108q38 -4 65.5 -9.5t70.5 -19t83 -40.5t74 -66q41 -46 66.5 -103.5t25.5 -97.5q0 -27 -23.5 -53.5t-62.5 -26.5q-26 0 -44 13t-25.5 26t-16.5 37q-35 85 -80.5 135.5t-132.5 61.5v-515q1 0 22.5 -7t31.5 -10t34.5 -11t40 -14.5t39.5 -15.5t41.5 -18t37.5 -19 t36.5 -21.5t29.5 -22.5q121 -106 121 -282q0 -18 -1.5 -37t-10 -61.5t-24 -79.5t-48 -82t-77 -78t-115 -60t-158.5 -35v-243q0 -69 -12.5 -91t-39.5 -22q-16 0 -26 5.5t-15.5 13t-8 25.5t-3 31t-0.5 42v237q-97 6 -176 39t-127.5 78.5t-81.5 100.5t-46 101.5t-13 84.5z M276 1102q0 -48 15.5 -86t36.5 -61t58.5 -43.5t64 -29.5t69.5 -22l2 490q-23 0 -50.5 -5.5t-63 -22t-64 -42.5t-48.5 -72.5t-20 -105.5zM627 113q63 11 111.5 33.5t76 53t45 58.5t24 60t8 45.5t1.5 27.5q0 38 -9 70.5t-21.5 55t-37 43.5t-42 33t-51.5 26t-51.5 20t-53.5 18 v-544z" />
<glyph unicode="%" horiz-adv-x="1705" d="M45 1090q0 380 295 380q69 0 122 -21.5t85.5 -56t53 -83.5t28.5 -98t8 -105q0 -26 -0.5 -42.5t-3 -51t-7.5 -58.5t-15 -58t-24.5 -58t-37.5 -50t-51.5 -42t-69 -26.5t-88.5 -10.5q-295 0 -295 381zM176 1090q0 -142 37 -213.5t129 -71.5q94 0 129 72.5t35 222.5 q0 140 -38 207t-126 67q-92 0 -129 -70.5t-37 -213.5zM313 -6q0 23 23 53l930 1374q3 5 10 14.5t9.5 13l7.5 10.5t7.5 9.5t7 7.5t7.5 6t7.5 3.5t9 3t9.5 0.5q22 0 38 -16.5t16 -36.5t-39 -76l-926 -1368q-31 -45 -61 -45q-23 0 -39.5 16.5t-16.5 30.5zM1069 369 q0 381 295 381q69 0 122 -21.5t85.5 -56.5t53 -84t28.5 -98t8 -105q0 -26 -0.5 -42.5t-3 -51t-7.5 -58.5t-15 -58t-24.5 -58t-37.5 -50t-51.5 -42t-69 -26.5t-88.5 -10.5q-295 0 -295 381zM1200 369q0 -142 37 -213.5t129 -71.5q94 0 129 72.5t35 222.5q0 140 -38 207 t-126 67q-92 0 -129 -70.5t-37 -213.5z" />
<glyph unicode="&#x26;" horiz-adv-x="1429" d="M115 403q0 57 14 107.5t42.5 91.5t57 72.5t74.5 63.5t76.5 50.5t79.5 45.5q-78 100 -117 177t-39 148q0 59 22.5 116.5t65.5 106.5t114.5 79t160.5 30q75 0 137 -22t101 -56.5t66 -78.5t38.5 -86t11.5 -81q0 -110 -79.5 -196.5t-227.5 -165.5q138 -168 185 -223t114 -127 q7 14 47 104t49 107q27 53 72 53q34 0 59 -23.5t25 -58.5q0 -46 -44 -141.5t-85 -165.5q61 -63 88.5 -88.5t103.5 -91.5q31 -28 42 -44t11 -40q0 -41 -28 -66t-58 -25q-14 0 -24.5 3t-41.5 23.5t-77 61.5q-25 21 -47.5 42t-34 32.5t-26 26.5t-17.5 18q-36 -42 -69 -72.5 t-85 -64.5t-121 -52t-151 -18q-97 0 -179 27t-137.5 70.5t-94.5 100t-56.5 115t-17.5 115.5zM301 422q0 -114 86 -207.5t211 -93.5q48 0 93.5 15t75.5 33.5t62 48.5t45 45.5t31 39.5q-71 73 -183 204t-171 210q-46 -26 -75.5 -45t-66 -48t-58 -56.5t-36 -65.5t-14.5 -80z M481 1176q0 -65 51 -144q32 -38 86 -114q44 25 73 43t62 43.5t52 49.5t32 55t13 65q0 73 -51 125.5t-131 52.5t-133.5 -53.5t-53.5 -122.5z" />
<glyph unicode="'" horiz-adv-x="385" d="M90 1221v245h205v-245l-47 -275h-113z" />
<glyph unicode="(" horiz-adv-x="704" d="M150 530q0 89 10 173t37.5 194t86.5 236t146 256q31 45 57 69t40 28.5t32 4.5q41 0 41 -18q0 -9 -20 -48q-131 -248 -199 -483q-53 -181 -53 -412q0 -83 7 -156t29 -183t74 -246.5t131 -292.5q1 -2 8 -14t12.5 -22.5t6.5 -14.5q4 -6 4 -13q0 -18 -37 -18q-19 0 -30 3 t-32 17t-47.5 49t-60.5 93q-119 200 -181 385t-62 413z" />
<glyph unicode=")" horiz-adv-x="704" d="M104 -412q0 6 21 47q130 247 199 484q53 181 53 411q0 83 -7 156.5t-29.5 183t-74.5 246.5t-131 293q-1 2 -7.5 14t-12 22.5t-6.5 14.5q-5 8 -5 13q0 18 37 18q19 0 30 -3t32 -17t47.5 -49t60.5 -93q120 -200 182 -385.5t62 -413.5q0 -89 -10.5 -173t-38 -193.5 t-86.5 -235.5t-146 -256q-31 -45 -57 -69t-40 -28.5t-32 -4.5q-41 0 -41 18z" />
<glyph unicode="*" horiz-adv-x="831" d="M57 1260q0 29 20.5 46t39.5 17q21 0 57.5 -14.5t198.5 -87.5q-23 211 -23 245q0 28 18.5 48t47.5 20q24 0 43.5 -18t19.5 -54l-18 -241q12 5 82 37.5t82 37.5q54 27 90 27q18 0 38.5 -16.5t20.5 -46.5q0 -27 -17 -42.5t-78 -34.5t-190 -44q126 -140 153.5 -174.5 t27.5 -55.5q0 -26 -19.5 -44.5t-46.5 -18.5q-35 0 -72 53q-73 104 -116 188q-18 -30 -45 -77q-75 -126 -91 -144l-6 -6q-14 -14 -38 -14q-30 0 -49 20t-19 41q0 47 178 232q-14 2 -76.5 15.5t-66.5 14.5q-85 18 -115.5 39t-30.5 52z" />
<glyph unicode="+" horiz-adv-x="1193" d="M113 639v168h401v401h168v-401h401v-168h-401v-401h-168v401h-401z" />
<glyph unicode="," horiz-adv-x="491" d="M127 88q0 50 35.5 83.5t83.5 33.5q60 0 92.5 -45.5t32.5 -122.5q0 -119 -55 -211t-117 -92q-20 0 -33.5 15.5t-13.5 35.5q0 12 5.5 22t10.5 15t25 24q51 51 53 129q-54 1 -86.5 34t-32.5 79z" />
<glyph unicode="-" horiz-adv-x="681" d="M43 512q0 24 9.5 41t21 25t34 12.5t36.5 5t40 0.5h314q25 0 39 -0.5t36.5 -5t34.5 -12.5t21.5 -25t9.5 -41t-9.5 -41t-21 -25t-34 -12.5t-36.5 -5t-40 -0.5h-314q-25 0 -39 0.5t-36.5 5t-34.5 12.5t-21.5 25t-9.5 41z" />
<glyph unicode="." horiz-adv-x="491" d="M133 88q0 47 33.5 80t79.5 33t79 -33t33 -80q0 -46 -33 -79.5t-79 -33.5q-47 0 -80 33.5t-33 79.5z" />
<glyph unicode="/" horiz-adv-x="575" d="M23 31q0 6 12 59l371 1319q15 54 28 68t60 14q22 0 40.5 -16t18.5 -41q0 -6 -12 -58l-371 -1319q-15 -54 -28 -68t-60 -14q-22 0 -40.5 15.5t-18.5 40.5z" />
<glyph unicode="0" d="M94 721q0 170 22 293.5t50.5 183t71.5 113.5q123 155 340 155q220 0 337 -155q68 -91 106 -217t38 -340q0 -145 -11.5 -252t-34 -177.5t-44 -111t-54.5 -82.5q-120 -156 -340 -156q-218 0 -337 156q-32 43 -54.5 84.5t-44.5 109.5t-33.5 167t-11.5 229zM276 721 q0 -110 7.5 -195.5t27.5 -165t53.5 -131.5t87 -83t126.5 -31q72 0 125.5 30.5t86.5 82.5t52.5 131t27 165t7.5 197q0 110 -7 195t-27 165t-52.5 132t-86.5 83t-126 31t-125.5 -30.5t-87 -82t-54 -130.5t-28 -165.5t-7.5 -197.5z" />
<glyph unicode="1" d="M176 1026q0 25 17 44t71 44q27 12 62 32.5t87.5 56.5t105 88.5t89.5 111.5q16 23 24.5 34t23 20t32.5 9q80 0 80 -135v-1218q0 -21 -0.5 -34t-5.5 -35t-13.5 -35t-26.5 -23.5t-44 -10.5q-88 0 -88 123v1065q-253 -211 -348 -211q-23 0 -44.5 19.5t-21.5 54.5z" />
<glyph unicode="2" d="M94 90q0 72 71.5 171t199.5 208q112 95 210 172q175 141 234 227.5t59 184.5q0 128 -84.5 201t-199.5 73q-99 0 -180.5 -53.5t-110.5 -157.5q-9 -34 -14.5 -50t-16.5 -36.5t-27 -28.5t-40 -8q-26 0 -51 18.5t-25 61.5q0 60 28.5 126t82.5 127t146.5 100.5t205.5 39.5 q86 0 158 -17.5t119 -45.5t83.5 -66.5t56.5 -76t32.5 -79t16 -70t3.5 -54.5q0 -49 -11.5 -95.5t-27.5 -84.5t-49.5 -81.5t-61 -74.5t-80 -77t-87.5 -75t-101 -82q-94 -75 -153 -126.5t-91 -89t-44 -57t-28 -52.5h609q23 0 35 -0.5t33 -2.5t32.5 -7t24.5 -13.5t18.5 -23 t5.5 -33.5q0 -24 -9.5 -40t-21.5 -24t-35 -12.5t-38 -5t-43 -0.5h-711q-123 0 -123 90z" />
<glyph unicode="3" d="M102 369q0 26 23.5 48.5t58.5 22.5t52.5 -21t29.5 -63q10 -30 22.5 -58.5t37.5 -63t56 -59.5t79 -42.5t104 -17.5q142 0 229 95t87 220q0 40 -10 79t-32.5 76t-54 65.5t-79 45.5t-103.5 17q-9 0 -60 -5.5t-59 -5.5q-38 0 -57.5 21t-19.5 49q0 33 21.5 51.5t39.5 21.5 t37 3q37 0 54 0.5t47 6.5t61 19q71 29 109 90.5t38 129.5q0 92 -65.5 165.5t-182.5 73.5q-95 0 -160 -52t-98 -126q-32 -73 -46 -90.5t-50 -17.5q-40 0 -58 25t-18 50q0 27 12.5 66t45 88.5t79.5 91t126 70t175 28.5q192 0 307 -107t115 -265q0 -54 -16 -100.5t-36.5 -76 t-55 -58.5t-54 -41t-51.5 -30q26 -7 42 -12t49 -19.5t55 -30.5t50 -44t44.5 -61t28.5 -81.5t12 -105.5q0 -71 -18.5 -137.5t-57.5 -125t-94 -102t-132.5 -69t-168.5 -25.5q-244 0 -361 123q-58 61 -93.5 138.5t-35.5 132.5z" />
<glyph unicode="4" d="M16 446q0 21 9 36t51 73l614 829q27 37 47 56t30 22.5t24 3.5q26 0 44 -9t27 -20.5t13.5 -34t5 -37t0.5 -42.5v-825h100q20 0 31.5 -0.5t31 -4.5t30.5 -11.5t19.5 -22.5t8.5 -37t-9 -37t-20 -22.5t-30 -11.5t-29.5 -4.5t-26.5 -0.5h-106v-231q0 -36 -1 -52.5t-6.5 -35 t-17.5 -27.5q-25 -25 -59 -25q-25 0 -42 9.5t-25.5 21t-13 34t-5 36t-0.5 39.5v231h-531q-45 0 -63.5 1t-37 6.5t-30.5 17.5q-33 33 -33 75zM201 498h510v692z" />
<glyph unicode="5" d="M106 332q0 42 24.5 63t55.5 21q35 0 53 -19t33 -55q15 -35 29 -61t40 -59.5t56 -55t75.5 -36.5t100.5 -15q64 0 117.5 21.5t89.5 57.5t61 82.5t36.5 96t11.5 98.5q0 159 -89.5 250.5t-217.5 91.5q-54 0 -98.5 -10.5t-82.5 -34.5t-59.5 -41.5t-58.5 -52.5q-29 -29 -66 -29 q-32 0 -57 23.5t-25 54.5q0 10 8 59l99 541q14 84 42 104.5t111 20.5h510q21 0 32.5 -0.5t32 -4.5t31.5 -11.5t20 -23.5t9 -38q0 -28 -11.5 -46t-34 -24.5t-37.5 -8t-40 -1.5h-510l-80 -436q155 98 299 98q192 0 323.5 -135t131.5 -334q0 -70 -19 -140.5t-60.5 -137 t-100.5 -117.5t-145 -82t-187 -31q-292 0 -424 265q-29 56 -29 92z" />
<glyph unicode="6" d="M86 684q0 188 34 340.5t126 269.5q43 54 96.5 91t107 53t92.5 22t76 6q70 0 130 -15.5t100.5 -40t72 -56t49.5 -62.5t30 -61.5t16 -50.5t4 -31q0 -26 -22.5 -50t-57.5 -24q-62 0 -88 76q-12 33 -26 58t-41 56t-70 48.5t-99 17.5q-36 0 -72 -10t-76.5 -33t-78 -70 t-63.5 -112q-43 -110 -60 -367q19 24 32 39t50 48t73.5 53t94.5 36.5t121 16.5q128 0 228 -64t152 -168t52 -229q0 -94 -32 -182t-90.5 -158.5t-151 -113t-203.5 -42.5q-68 0 -128.5 16t-103 40t-79.5 58t-59 63t-40 61q-27 47 -44.5 92t-34.5 146.5t-17 232.5zM293 471 q0 -91 36.5 -171.5t108 -132.5t162.5 -52q127 0 206 102t79 248q0 152 -82 240t-203 88q-36 0 -75 -9.5t-81 -33.5t-75 -59t-54.5 -92.5t-21.5 -127.5z" />
<glyph unicode="7" d="M78 1374q0 21 7 36t16 22t26.5 11t28.5 4.5t32 0.5h693q35 0 51.5 -0.5t41.5 -5t36.5 -13t20.5 -25t9 -40.5t-12 -44t-70 -93q-102 -129 -179.5 -258.5t-123.5 -235t-81 -230t-51 -212.5t-34 -213q-14 -103 -92 -103q-24 0 -42.5 9t-27.5 21t-14.5 28.5t-6.5 27.5t-1 23 q0 214 131 551q65 171 160 325.5t233 331.5h-641q-110 0 -110 82z" />
<glyph unicode="8" d="M88 424q0 55 11.5 103t28 81.5t43 63.5t47.5 47t51 33t44.5 22t36.5 14q-20 9 -29 13.5t-35 20.5t-41.5 30t-37.5 39t-34.5 51t-22 63.5t-9.5 79.5q0 71 28.5 138t80.5 122t136 88t185 33q113 0 201 -36t137.5 -94t74 -122t24.5 -129q0 -205 -205 -297q23 -9 34 -13.5 t43 -21.5t52 -33.5t48 -47t44.5 -64t28.5 -82.5t12 -104q0 -88 -32 -167.5t-91.5 -142.5t-154.5 -100t-212 -37q-121 0 -216.5 38.5t-153 103t-87.5 143t-30 164.5zM266 416q0 -146 91 -225.5t218 -79.5q59 0 114 19t99.5 55t71.5 96t27 135q0 139 -87.5 218t-226.5 79 q-132 0 -219.5 -76.5t-87.5 -220.5zM315 1083q0 -104 74 -169.5t186 -65.5q111 0 185 66t74 169q0 43 -16 86.5t-46.5 81t-82.5 61t-116 23.5q-111 0 -184.5 -74t-73.5 -178z" />
<glyph unicode="9" d="M78 971q0 94 32 182t90.5 158t151 112.5t203.5 42.5q84 0 155 -23t120 -61.5t80.5 -75t54.5 -77.5q27 -47 44.5 -92t34.5 -146.5t17 -232.5q0 -189 -34 -341.5t-126 -269.5q-43 -54 -97 -91t-107.5 -53t-92.5 -22t-76 -6q-97 0 -173 29.5t-117.5 70t-68 88.5t-34.5 80 t-8 50q0 26 22.5 50t57.5 24q62 0 88 -76q12 -33 26 -58t40.5 -56t69.5 -48.5t99 -17.5q36 0 72 10t77 33t78.5 70t63.5 112q43 110 60 366q-19 -24 -32 -39t-50 -47.5t-73.5 -52.5t-94.5 -36.5t-121 -16.5q-128 0 -228 64t-152 168t-52 229zM262 977q0 -152 82 -240 t203 -88q36 0 75 9.5t81 33.5t75 59t54.5 92.5t21.5 127.5q0 91 -36.5 171.5t-108 132.5t-162.5 52q-127 0 -206 -102t-79 -248z" />
<glyph unicode=":" horiz-adv-x="491" d="M133 88q0 47 33.5 80t79.5 33t79 -33t33 -80q0 -46 -33 -79.5t-79 -33.5q-47 0 -80 33.5t-33 79.5zM133 973q0 47 33.5 79.5t79.5 32.5t79 -32.5t33 -79.5q0 -46 -33 -79.5t-79 -33.5q-47 0 -80 33.5t-33 79.5z" />
<glyph unicode=";" horiz-adv-x="491" d="M127 88q0 50 35.5 83.5t83.5 33.5q60 0 92.5 -45.5t32.5 -122.5q0 -119 -55 -211t-117 -92q-20 0 -33.5 15.5t-13.5 35.5q0 12 5.5 22t10.5 15t25 24q51 51 53 129q-54 1 -86.5 34t-32.5 79zM131 973q0 47 33.5 79.5t79.5 32.5t79 -32.5t33 -79.5q0 -46 -33 -79.5 t-79 -33.5q-47 0 -80 33.5t-33 79.5z" />
<glyph unicode="&#x3c;" horiz-adv-x="1193" d="M113 637v168l970 414v-179l-768 -319l768 -315v-179z" />
<glyph unicode="=" horiz-adv-x="1193" d="M113 418v168h970v-168h-970zM113 862v168h970v-168h-970z" />
<glyph unicode="&#x3e;" horiz-adv-x="1193" d="M113 227v179l768 319l-768 315v179l970 -410v-168z" />
<glyph unicode="?" horiz-adv-x="1087" d="M98 1112q0 27 13.5 69t48.5 97t85.5 101.5t134.5 79t185 32.5q107 0 192.5 -34.5t136.5 -91.5t78 -125t27 -140q0 -98 -46.5 -177.5t-155.5 -183.5q-88 -85 -121 -125.5t-45 -74.5t-21 -109q-9 -82 -84 -82q-86 0 -86 107q0 120 44.5 197t150.5 173q54 49 78.5 73.5 t52.5 59.5t37.5 67t9.5 73q0 98 -73 169.5t-187 71.5q-204 0 -268 -233q-7 -19 -11.5 -29.5t-15 -26.5t-28 -24t-40.5 -8q-35 0 -63.5 25t-28.5 69zM432 88q0 47 33.5 80t79.5 33t79 -33t33 -80q0 -46 -33 -79.5t-79 -33.5q-47 0 -80 33.5t-33 79.5z" />
<glyph unicode="@" horiz-adv-x="2068" d="M111 467q0 89 15 182t50 194.5t87 193.5t132.5 175.5t179.5 145t234 97.5t291 36q166 0 307.5 -44.5t241 -120.5t170 -176t104 -211.5t33.5 -227.5q0 -97 -24 -188t-60.5 -159t-86 -128.5t-94 -99.5t-89.5 -68q-117 -74 -248 -74q-50 0 -87 12t-55.5 27.5t-30.5 42 t-15 43t-5 43.5q-22 -26 -49 -50t-66.5 -52.5t-90 -46t-101.5 -17.5q-155 0 -258.5 130t-103.5 318q0 112 42 226.5t111 205t166 148t199 57.5q29 0 58 -5t73.5 -21.5t90 -56.5t81.5 -99l35 156h178l-144 -672q-30 -132 -30 -156q0 -31 22.5 -48t46.5 -17q34 0 82 24 t101.5 72.5t99 112.5t75 155t29.5 189q0 183 -96 327.5t-259 222.5t-361 78q-151 0 -284 -45t-232.5 -125t-172 -187.5t-109 -236t-36.5 -266.5q0 -170 50.5 -305t133 -220t196 -141t232.5 -79t250 -23q124 0 233.5 22.5t183 54.5t135.5 76t95 79t58 71h180 q-54 -107 -158 -198q-290 -252 -725 -252q-210 0 -381 48.5t-287 131.5t-194 198.5t-113.5 245.5t-35.5 275zM676 432q0 -138 66 -213.5t149 -75.5q66 0 132 41.5t117 109t83 161.5t32 192q0 138 -66.5 212.5t-164.5 74.5q-82 0 -151 -53.5t-110.5 -133t-64 -163 t-22.5 -152.5z" />
<glyph unicode="A" horiz-adv-x="1409" d="M39 61q0 27 29 103l464 1153q12 32 18 46.5t17 37.5t18.5 33t19.5 24t24 19.5t28.5 9.5t36.5 4q28 0 56 -11.5t43 -29.5q23 -27 65 -131l481 -1147q31 -79 31 -106q0 -32 -28 -61.5t-70 -29.5q-45 0 -65 24.5t-46 89.5q-3 7 -4 11l-131 324h-653l-127 -328 q-14 -34 -18 -43.5t-15 -31t-20 -27.5t-24.5 -12.5t-35.5 -6.5q-38 0 -66 27t-28 59zM428 582h539l-275 686z" />
<glyph unicode="B" horiz-adv-x="1409" d="M172 164v1139q0 59 4 88t23.5 48t48 23t88.5 4h422q88 0 152 -10t90 -20.5t55 -28.5q83 -49 128.5 -131.5t45.5 -179.5q0 -21 -1.5 -39t-12.5 -60.5t-31.5 -77.5t-64 -76t-103.5 -69q28 -10 42.5 -15.5t48.5 -22.5t55 -33t50 -45.5t45.5 -62t28.5 -80t12 -101.5 q0 -108 -51 -202t-141 -144q-122 -68 -313 -68h-457q-39 0 -63.5 2t-44.5 9t-29.5 16.5t-16.5 30t-8.5 44t-1.5 62.5zM369 158h409q72 0 125.5 13.5t73 26t41.5 31.5q35 30 57.5 80.5t22.5 112.5q0 112 -72 178q-89 80 -248 80h-409v-522zM369 838h374q155 0 222 67 q71 71 71 170q0 48 -14 86.5t-34 62.5t-53.5 41.5t-59.5 25.5t-66.5 12.5t-60.5 5t-54 0.5h-8h-317v-471z" />
<glyph unicode="C" horiz-adv-x="1492" d="M113 733q0 169 51 311.5t141.5 240t217 152t274.5 54.5q121 0 224 -37t165.5 -90t107 -114t62.5 -107.5t18 -71.5q0 -32 -21 -59t-59 -27q-17 0 -33 8.5t-26.5 17.5t-25 30.5t-19.5 30.5t-19 34q-55 107 -157 170q-91 57 -209 57q-66 0 -130 -16.5t-131 -59.5 t-117 -109.5t-82 -175.5t-32 -247t31.5 -245.5t79.5 -171t113.5 -105t126.5 -56t124 -14.5q313 0 426 322q7 19 12.5 30.5t15.5 25.5t25.5 21t35.5 7q32 0 57.5 -22.5t25.5 -59.5q0 -41 -19 -98.5t-64.5 -125.5t-109.5 -124.5t-165.5 -95t-220.5 -38.5q-315 0 -485 175 q-100 104 -154.5 260t-54.5 323z" />
<glyph unicode="D" horiz-adv-x="1492" d="M174 188v1115q0 110 27.5 136.5t138.5 26.5h356q61 0 101.5 -2t104 -12.5t112 -30t105 -58t102.5 -93.5q161 -192 161 -535q0 -82 -10.5 -160t-36.5 -166.5t-80 -168t-131 -134.5q-65 -46 -150 -71.5t-142 -30t-134 -4.5h-358q-42 0 -68 2t-46 11t-29 19t-15 35t-7 49.5 t-1 71.5zM371 158h301q147 0 233 29.5t158 115.5q41 49 68 116.5t36.5 136.5t12 103t2.5 66q0 138 -34 252.5t-85 181.5q-65 85 -151.5 117.5t-249.5 32.5h-291v-1151z" />
<glyph unicode="E" horiz-adv-x="1300" d="M178 164v1139v13q0 54 4 77t23 43q19 21 43.5 25.5t93.5 4.5h715h31.5t29 -2t30 -6.5t21.5 -12.5t18 -22.5t5 -33.5q0 -24 -9 -40t-19.5 -23.5t-33.5 -11.5t-34.5 -4.5t-38.5 -0.5h-682v-471h626q24 0 37 -0.5t34 -4.5t32 -11.5t20 -23.5t9 -38q0 -23 -8.5 -39t-19.5 -24 t-32 -12t-34 -4.5t-38 -0.5h-626v-522h710q22 0 31 -0.5t29.5 -2t30.5 -6.5t22.5 -13t17.5 -22.5t5 -33.5q0 -24 -9.5 -40t-20 -23.5t-33.5 -11.5t-34.5 -4.5t-38.5 -0.5h-743q-70 0 -91.5 4t-43.5 25q-20 19 -24.5 43t-4.5 92z" />
<glyph unicode="F" horiz-adv-x="1173" d="M172 137v1166q0 59 4 88t23.5 48t48 23t88.5 4h641h31.5t28.5 -2t29.5 -6.5t21 -12.5t17.5 -22.5t5 -33.5q0 -24 -9 -40t-19 -23.5t-32.5 -11.5t-34 -4.5t-38.5 -0.5h-608v-480h505q24 0 36.5 -0.5t34 -4.5t32.5 -11.5t20 -23t9 -37.5q0 -23 -9 -39t-20 -24t-32 -12 t-34 -4.5t-37 -0.5h-505v-535q0 -59 -5 -86.5t-22 -44.5q-31 -31 -72 -31t-73 29q-17 19 -21 45.5t-4 87.5z" />
<glyph unicode="G" horiz-adv-x="1599" d="M109 727q0 122 27 232.5t85.5 208.5t143.5 169t209.5 112.5t275.5 41.5q99 0 183.5 -19t143 -49t105 -69.5t74.5 -78.5t46 -77t25 -63.5t7 -40.5q0 -36 -23.5 -61t-73.5 -25q-26 0 -47 18.5t-49 69.5q-19 35 -37 61t-53.5 61.5t-76 58.5t-103.5 39.5t-137 16.5 q-166 0 -286.5 -78.5t-179.5 -211.5t-59 -304q0 -305 162 -467q139 -139 385 -139q224 0 430 137v318h-321q-22 0 -33.5 0.5t-31 2.5t-30 7t-22 13t-16.5 22t-5 33q0 28 11 45.5t33 24t35.5 8t37.5 1.5h369q99 -2 129.5 -26.5t30.5 -114.5v-321q0 -52 -8 -78.5t-42 -50.5 q-5 -5 -29.5 -21.5t-79 -44t-119 -52.5t-156.5 -43t-183 -18q-188 0 -334 60t-234.5 164.5t-133.5 238t-45 289.5z" />
<glyph unicode="H" horiz-adv-x="1492" d="M166 137v1192q0 45 0.5 62t6 37t17.5 32q31 31 72 31q44 0 72 -31q19 -17 23.5 -44t4.5 -87v-481h768v483q0 56 5.5 83.5t23.5 45.5q31 31 72 31t72 -31q12 -12 17.5 -32t6 -36.5t0.5 -60.5v-1196q0 -45 -0.5 -61.5t-6 -36t-17.5 -31.5q-31 -31 -72 -31q-40 0 -72 29 q-18 19 -23.5 47.5t-5.5 83.5v555h-768v-553q0 -60 -4.5 -87t-23.5 -44q-27 -31 -72 -31q-40 0 -72 29q-12 13 -17.5 33.5t-6 37.5t-0.5 62z" />
<glyph unicode="I" horiz-adv-x="598" d="M201 137v1192q0 45 0.5 62t6.5 37t19 32q31 31 72 31q44 0 72 -31q13 -12 19 -32.5t6.5 -37.5t0.5 -61v-1192q0 -45 -0.5 -62t-6.5 -37t-19 -32q-31 -31 -72 -31q-43 0 -72 29q-13 13 -19 33.5t-6.5 37.5t-0.5 62z" />
<glyph unicode="J" horiz-adv-x="1087" d="M53 391q0 32 11 53.5t28.5 30t29.5 11.5t23 3q47 0 63.5 -28t33.5 -113q4 -18 6 -26.5t11 -35t19 -42.5t28.5 -39.5t41 -37.5t55.5 -24t72 -10q85 0 138.5 42t76.5 104q23 61 23 167v883q0 58 5 87t23 46q29 29 70 29t70 -29q14 -12 20 -33.5t7 -39t1 -60.5v-868 q0 -45 -1 -73.5t-9.5 -85t-23.5 -94.5t-47 -86t-76.5 -77t-115 -49.5t-159.5 -20.5q-205 0 -309 107q-56 59 -85.5 147t-29.5 162z" />
<glyph unicode="K" horiz-adv-x="1429" d="M178 137v1192q0 41 1 60t7.5 40t20.5 33q29 29 69 29q41 0 70 -29q14 -12 20.5 -33t7.5 -40t1 -60v-594l725 695q40 40 57 50.5t45 10.5q38 0 64 -26.5t26 -57.5q0 -14 -2.5 -24t-15.5 -29.5t-39 -44.5l-471 -435l524 -686q62 -77 62 -122q0 -39 -30 -65t-71 -26 q-37 0 -59.5 19.5t-71.5 85.5l-487 670l-256 -238v-418q0 -65 -29.5 -92t-66.5 -27q-45 0 -76 31q-17 17 -21 44.5t-4 86.5z" />
<glyph unicode="L" horiz-adv-x="1173" d="M172 164v1165q0 61 4 87.5t21 43.5q31 31 71 31q46 0 74 -31q18 -17 22.5 -43.5t4.5 -87.5v-1171h620q27 0 38.5 -0.5t35 -4.5t34 -11.5t20 -23.5t9.5 -40q0 -23 -8.5 -38.5t-18.5 -23t-30.5 -11.5t-33.5 -4.5t-38 -0.5h-4h-4h-653q-40 0 -63.5 1.5t-44 8.5t-30 16.5 t-16.5 30t-8.5 44t-1.5 63.5z" />
<glyph unicode="M" horiz-adv-x="1622" d="M111 119v1184q0 47 11 80t25 48.5t38 24t37 9.5t36 1q39 0 55 -0.5t38.5 -4.5t31 -10.5t21.5 -22t21 -35.5t19 -54l306 -911q21 -61 71 -217q18 57 78 235l303 887q14 39 19.5 55.5t17.5 36t18.5 24t26 11t36 6.5h52.5q34 0 56.5 -3t38.5 -12t24.5 -18.5t13 -31 t5.5 -41.5t1 -57v-1203q0 -125 -94 -125t-94 117v1135l-381 -1096q-34 -98 -55 -127t-72 -29q-56 0 -80 27t-59 129l-377 1116v-1126q0 -22 -0.5 -35.5t-5.5 -37t-14 -37.5t-28 -25t-46 -11q-31 0 -51.5 12.5t-29 36t-11 44t-2.5 51.5z" />
<glyph unicode="N" horiz-adv-x="1492" d="M166 133v1167q0 82 5.5 109.5t33.5 52.5q29 29 78 29q41 0 65 -22.5t70 -92.5l727 -1085l-6 1042q-1 26 -1 43.5t1 27.5q2 20 12 40q8 19 30 33t50 14q40 0 69 -29q19 -17 23 -43t4 -86v-1159q0 -84 -6 -115t-35 -55q-37 -29 -80 -29q-44 0 -69 22.5t-74 96.5l-715 1067 l8 -1028q0 -54 -2 -72.5t-10 -37.5t-31 -33.5t-51 -14.5q-40 0 -69 29q-19 17 -23 43t-4 86z" />
<glyph unicode="O" horiz-adv-x="1599" d="M104 733q0 71 9.5 142t33 147t59.5 143t92 127.5t126 104t167.5 69t211.5 25.5q151 0 272.5 -46.5t198 -122t128 -176.5t72.5 -203t21 -210q0 -114 -23 -220t-76 -205t-130.5 -172t-195.5 -117t-263 -44q-118 0 -218 27t-171 71.5t-127 107t-90.5 130t-57 143.5t-31 144 t-8.5 135zM305 709q0 -131 39.5 -240.5t107 -182.5t157 -113t190.5 -40q47 0 96.5 11t107 35.5t108 70.5t92.5 109.5t66.5 160t24.5 213.5t-24.5 213.5t-66.5 160t-92.5 109.5t-108 70.5t-107 35.5t-96.5 11q-195 0 -342 -147q-44 -42 -75.5 -104t-47 -129t-22.5 -127 t-7 -117z" />
<glyph unicode="P" horiz-adv-x="1300" d="M178 137v1166q0 42 2 68t11.5 45.5t18 28.5t34 14t47 6t67.5 1h351q108 0 192.5 -17.5t151.5 -68.5q74 -56 114.5 -144.5t40.5 -195.5q0 -113 -50 -216t-148 -154q-127 -68 -301 -68h-334v-465q0 -76 -15 -112q-8 -19 -32 -34.5t-52 -15.5q-42 0 -73 31q-12 12 -17.5 33 t-6.5 39.5t-1 58.5zM375 760h282q351 0 351 276q0 122 -72 197q-25 26 -59.5 42.5t-77 23.5t-71.5 8.5t-71 1.5h-282v-549z" />
<glyph unicode="Q" horiz-adv-x="1599" d="M104 733q0 71 9.5 141.5t33 146.5t59 143t91.5 127.5t126 104.5t166.5 69.5t209.5 25.5q118 0 218 -27.5t170 -73t125.5 -109t89 -131.5t55 -144.5t30 -143.5t8.5 -133q0 -346 -205 -569q67 -51 170 -107q54 -29 72 -47t18 -43q0 -27 -21 -48t-46 -21q-32 0 -91.5 30 t-104.5 59t-120 80q-166 -88 -370 -88q-148 0 -268 45t-197.5 119.5t-130 174.5t-75 204t-22.5 215zM305 729q0 -135 34.5 -242.5t86.5 -171.5t120.5 -107t130 -59t120.5 -16q116 0 221 53q-31 25 -57 40t-117 61q-60 27 -60 65q0 25 17.5 46.5t42.5 21.5q43 0 131 -48.5 t158 -105.5q161 166 161 469q0 97 -17.5 180.5t-47 143.5t-70.5 108t-85.5 78.5t-93.5 50.5t-93.5 28.5t-87.5 8.5q-33 0 -70 -5.5t-86.5 -23t-95 -44t-90.5 -74t-78 -108.5t-53.5 -151t-20.5 -198z" />
<glyph unicode="R" horiz-adv-x="1409" d="M176 139v1164q0 59 4 88t23.5 48t48 23t88.5 4h469q187 0 287 -59q88 -53 138 -142.5t50 -197.5q0 -100 -40 -175t-93 -116q-96 -73 -258 -100q33 -19 48 -29t49 -38.5t59 -61.5q81 -109 86 -117l133 -223q45 -75 56 -99.5t11 -48.5q0 -38 -27 -62t-63 -24q-42 0 -67 25 t-76 108l-139 222q-43 68 -79.5 118t-66 85.5t-59 59t-52 37t-52 20t-51.5 8t-58 1.5h-172v-518q0 -73 -8 -100q-8 -30 -36 -47t-57 -17q-30 0 -55.5 17.5t-34.5 46.5q-6 18 -6 100zM373 815h342q23 0 37.5 0.5t45.5 2.5t53.5 6.5t54.5 13t54.5 21t47 32t40 44t25.5 59 t10 75.5q0 119 -94 191q-71 55 -268 55h-348v-500z" />
<glyph unicode="S" horiz-adv-x="1300" d="M111 408q0 33 25 58.5t61 25.5q38 0 55.5 -24.5t46.5 -105.5q9 -23 13.5 -35.5t20 -41t31 -46.5t43.5 -42.5t60 -38.5t79 -24.5t101 -10.5q94 0 175.5 30t135.5 94t54 150q0 46 -14 83.5t-41 63.5t-53 44.5t-66 32t-62.5 20t-58.5 14.5q-212 46 -288.5 71.5t-141.5 76.5 q-137 110 -137 287q0 98 40.5 176t110.5 126.5t158.5 73.5t189.5 25q63 0 121.5 -9t121 -31t116 -65t88.5 -104q47 -82 47 -152q0 -35 -24.5 -65.5t-63.5 -30.5q-22 0 -38.5 8t-27.5 24.5t-17 30.5t-14 36q-18 52 -38 85t-62 64q-81 59 -215 59q-137 0 -221 -68t-84 -163 q0 -28 7 -53t17 -44t29.5 -36.5t35 -29.5t43.5 -25t45 -20t50.5 -16.5t49 -13.5t49.5 -12q176 -42 260 -73.5t143 -75.5q63 -48 98 -130.5t35 -156.5q0 -93 -35 -174t-101.5 -143t-170.5 -98t-234 -36q-276 0 -417 144q-60 61 -95.5 142t-35.5 149z" />
<glyph unicode="T" horiz-adv-x="1193" d="M25 1386q0 28 24 56q11 12 29.5 17.5t33.5 6t54 0.5h862q39 0 54 -0.5t33.5 -6t27.5 -17.5q26 -26 26 -56q0 -29 -26 -55q-11 -11 -29 -16t-32.5 -5.5t-53.5 -0.5h-334v-1172q0 -44 -0.5 -61t-6.5 -38.5t-19 -33.5q-29 -29 -72 -29q-41 0 -70 29q-14 12 -20 33t-7 38.5 t-1 61.5v1172h-332q-39 0 -54 0.5t-33.5 5.5t-27.5 16q-26 26 -26 55z" />
<glyph unicode="U" horiz-adv-x="1492" d="M166 563v764q0 63 4 88.5t23 44.5q31 31 71 31q44 0 72 -31q13 -13 19 -33.5t6.5 -37.5t0.5 -62v-778q0 -39 1 -63.5t8.5 -72.5t21 -81t42.5 -74t69 -65.5t103 -42t143 -17.5q83 0 148 18.5t105 52.5t66.5 73t39 89.5t17 91.5t4.5 89v780q0 63 4 88.5t23 44.5 q31 31 72 31q43 0 71 -31q19 -19 23 -45.5t4 -87.5v-762q0 -590 -563 -590q-303 0 -450.5 136.5t-147.5 451.5z" />
<glyph unicode="V" horiz-adv-x="1300" d="M39 1401q0 33 27.5 61.5t68.5 28.5q48 0 68.5 -27.5t46.5 -99.5l399 -1155l412 1161q10 30 15.5 43.5t15 32t19 26t24.5 13.5t34 6q37 0 65 -26t28 -58q0 -6 -0.5 -11t-1.5 -11.5t-2 -10.5t-4 -12.5t-5 -13.5t-6.5 -18t-7.5 -21l-430 -1162q-16 -42 -24 -61.5t-22 -46 t-28 -37t-35 -19t-49 -8.5q-65 0 -94 36t-66 136l-419 1151q-29 80 -29 103z" />
<glyph unicode="W" horiz-adv-x="1855" d="M37 1405q0 31 26 58.5t66 27.5q52 0 72 -32t35 -103l262 -1075l280 1036q12 45 19.5 66.5t23 46t39.5 34t60 9.5q35 0 59 -7t38 -15.5t26 -33t17.5 -41.5t16.5 -59l281 -1036l262 1075q6 28 10 43.5t12 36t18 30.5t26 17.5t38 7.5q43 0 69 -27.5t26 -58.5 q0 -13 -3.5 -32.5t-8.5 -38t-5 -21.5l-305 -1172q-11 -41 -16 -57t-16.5 -43t-23 -37.5t-31.5 -19.5t-46 -9q-27 0 -47 8.5t-32 18.5t-24 36.5t-17 42t-17 56.5l-299 1102l-299 -1102q-9 -32 -12 -41t-11.5 -33.5t-14 -31.5t-16 -22t-21.5 -20t-27 -9.5t-35 -4.5 q-33 0 -54.5 10t-36.5 36.5t-22.5 48.5t-20.5 71l-305 1172q-16 80 -16 92z" />
<glyph unicode="X" horiz-adv-x="1236" d="M43 61q0 38 53 113l420 592l-358 526q-52 78 -52 115q0 34 26 59t67 25q33 0 52 -18t55 -74q7 -11 11 -17l308 -473l342 486q31 45 43 60t29 25.5t40 10.5q30 0 56 -18t26 -58q0 -35 -51 -108l-371 -529l400 -598q51 -78 51 -117q0 -35 -26.5 -61.5t-69.5 -26.5 q-34 0 -55 21.5t-72 97.5l-342 524l-381 -546q-30 -45 -41.5 -59.5t-30 -26t-43.5 -11.5q-38 0 -62 24t-24 62z" />
<glyph unicode="Y" horiz-adv-x="1259" d="M49 1401q0 35 26 62.5t70 27.5q35 0 54.5 -19.5t62.5 -89.5l367 -579l377 586q42 67 60.5 84.5t53.5 17.5q37 0 63.5 -25t26.5 -61q0 -24 -12 -47.5t-39 -63.5l-438 -665v-492q0 -41 -1 -60t-7.5 -40t-20.5 -33q-29 -29 -69 -29t-72 29q-13 12 -19 33t-7 40t-1 60v492 l-422 655q-53 85 -53 117z" />
<glyph unicode="Z" horiz-adv-x="1280" d="M25 104q0 27 13 49t58 78l858 1078h-721q-21 0 -31 0.5t-28.5 2t-28.5 6.5t-21.5 13t-16.5 22t-5 33q0 23 8.5 39t19 24t31.5 12t34 4.5t38 0.5h822q22 0 35.5 -0.5t37 -6t37 -15.5t24.5 -31t11 -51q0 -29 -11.5 -51t-43.5 -62l-871 -1091h824q81 0 107 -12 q40 -17 40 -68q0 -19 -5.5 -33.5t-17.5 -22.5t-22 -13t-30 -6.5t-28.5 -2t-29.5 -0.5h-907q-69 0 -93 3t-44 17q-43 31 -43 84z" />
<glyph unicode="[" horiz-adv-x="704" d="M158 -246v1549q0 71 3.5 92t24.5 43q20 20 42.5 24t84.5 4h244q22 0 33 -0.5t30.5 -4t29 -10.5t18 -21t8.5 -35q0 -24 -9 -39t-28.5 -21t-33.5 -7t-40 -1h-8h-227v-1597h227h28t26 -2t26 -6t19 -11t15.5 -19.5t4.5 -29.5q0 -21 -8 -35t-18 -21.5t-29 -11t-30.5 -4 t-33.5 -0.5h-244q-61 0 -82.5 4t-44.5 25q-20 19 -24 42.5t-4 92.5z" />
<glyph unicode="\" horiz-adv-x="575" d="M23 1434q0 24 18 40.5t43 16.5q45 0 59 -15.5t27 -66.5l371 -1319q12 -44 12 -59q0 -23 -18 -40.5t-43 -17.5q-44 0 -58.5 16t-27.5 68l-371 1319q-12 44 -12 58z" />
<glyph unicode="]" horiz-adv-x="704" d="M29 -338q0 32 19 48t37.5 18t53.5 2h8h228v1597h-228h-27.5t-25.5 2t-26.5 6t-19 11t-15 19.5t-4.5 29.5q0 21 8 35t17.5 21t29 10.5t30 4t33.5 0.5h244q63 0 83.5 -4t43.5 -24q20 -19 24.5 -43t4.5 -92v-1549q0 -70 -4 -91.5t-25 -43.5q-20 -20 -43 -24.5t-84 -4.5h-244 q-21 0 -32.5 0.5t-30.5 4t-29 11t-18 21.5t-8 35z" />
<glyph unicode="^" horiz-adv-x="960" d="M53 690l355 801h145l354 -801h-182l-246 598l-241 -598h-185z" />
<glyph unicode="_" horiz-adv-x="1024" d="M-12 -276h1048v-132h-1048v132z" />
<glyph unicode="`" horiz-adv-x="681" d="M129 1454q0 10 12 13t49 3h50q71 0 92 -12.5t55 -81.5l51 -100q21 -41 21 -53q0 -13 -12 -25t-33 -12q-34 0 -81 41t-155 159q-33 36 -41 47.5t-8 20.5z" />
<glyph unicode="a" d="M86 279q0 50 13.5 92t33 71t52 53.5t59 38.5t67.5 27t63.5 18.5t59.5 12.5q19 4 147.5 27.5t151.5 29.5q41 11 101 31q-1 31 -1.5 47t-3.5 44t-7.5 43.5t-13.5 37.5t-20.5 34.5t-30 27.5t-41.5 22.5t-54.5 12.5t-69.5 5q-104 0 -186 -35t-113 -112q-9 -23 -14 -34 t-15.5 -25.5t-24.5 -20.5t-34 -6q-33 0 -56.5 22t-23.5 54q0 23 9.5 54t40.5 73.5t78 77t132.5 59t194.5 24.5q67 0 122 -7.5t96.5 -19.5t74 -32.5t55 -42t38 -53t24.5 -60t14 -69t6.5 -74t1.5 -80.5q0 -27 -3 -169t-3 -165q0 -99 28 -176q0 -2 6 -19.5t10.5 -37.5t4.5 -35 q0 -27 -25.5 -48.5t-60.5 -21.5q-25 0 -45 15.5t-34 45t-22 53.5t-18 61q-182 -175 -420 -175q-85 0 -152.5 26t-108.5 70t-62 97t-21 111zM268 291q0 -66 51.5 -121t151.5 -55q94 0 185.5 39.5t134.5 113.5q28 48 36.5 114t8.5 171q-73 -27 -119 -37q-56 -13 -161 -33 t-150 -32q-55 -15 -88 -47.5t-41.5 -59.5t-8.5 -53z" />
<glyph unicode="b" horiz-adv-x="1259" d="M150 117v1226q0 23 0.5 35t3 33t8 32.5t15 24t25.5 18t38 5.5q25 0 42.5 -9.5t26.5 -21.5t13.5 -36t5 -39t0.5 -44v-440q8 13 23 30t49.5 46t74.5 51.5t100.5 39.5t126.5 17q105 0 189 -35.5t135 -91t85 -129.5t47 -144.5t13 -143.5q0 -68 -11.5 -138t-44.5 -149 t-83.5 -139t-137 -100t-196.5 -40q-64 0 -121.5 14.5t-93 32t-72.5 48.5t-51 46.5t-38 43.5v-64q0 -121 -86 -121q-37 0 -62 25q-12 9 -17.5 28t-6 34.5t-0.5 54.5zM326 520q0 -88 20 -158.5t53 -115.5t77.5 -75.5t91 -43t96.5 -12.5q44 0 87.5 13t87 45t76.5 79t53.5 121.5 t20.5 165.5q0 177 -86.5 292t-232.5 115q-38 0 -78 -9t-89.5 -37.5t-87 -73.5t-63.5 -124t-26 -182z" />
<glyph unicode="c" d="M86 528q0 79 13.5 153t49.5 149t91 130t145.5 90t206.5 35q86 0 155.5 -17.5t117 -49t78 -63t56.5 -72.5q37 -56 37 -99q0 -33 -24 -55t-56 -22q-15 0 -24 2.5t-26 19t-36 49.5q-14 23 -22 35.5t-34.5 42t-53 45.5t-71 30.5t-95.5 14.5q-150 0 -240 -110.5t-90 -298.5 q0 -197 87.5 -309.5t238.5 -112.5q86 0 158.5 39.5t113.5 111.5q2 4 14.5 26.5t23.5 42.5t15 25q29 33 60 33t56.5 -23t25.5 -59q0 -21 -14 -58t-48.5 -86t-84 -91t-131.5 -71.5t-179 -29.5q-309 0 -438 228q-76 136 -76 325z" />
<glyph unicode="d" horiz-adv-x="1259" d="M88 541q0 73 13 143.5t47 144.5t85 129.5t135 91t189 35.5q66 0 127 -17t101 -39.5t74.5 -51.5t49.5 -46t23 -30v440q0 29 0.5 44t5 39t13.5 36t26.5 21.5t42.5 9.5q22 0 38 -5.5t25.5 -18t15 -24t8 -32.5t3 -33t0.5 -35v-1226q0 -37 -1 -54t-6.5 -35t-17.5 -28 q-25 -25 -61 -25q-86 0 -86 121v64q-23 -28 -37.5 -44t-51.5 -46.5t-73 -48t-93.5 -32t-121.5 -14.5q-110 0 -196.5 40t-137 100t-83.5 139t-44.5 149t-11.5 138zM270 539q0 -113 31 -199t81 -133t104 -69.5t110 -22.5q50 0 96.5 12.5t91 43t77.5 75.5t53 115.5t20 158.5 q0 103 -26 182t-63.5 124t-87 73.5t-89.5 37.5t-78 9q-146 0 -233 -115t-87 -292z" />
<glyph unicode="e" d="M90 532q0 117 31 216t91.5 175t157.5 119t222 43q86 0 158 -22t120 -56t85 -80t57.5 -91t33.5 -92t17 -78.5t4 -55.5q0 -33 -10.5 -56t-23.5 -34t-38.5 -17t-40.5 -6.5t-45 -0.5h-637q2 -103 30 -180.5t75.5 -122t104 -66t122.5 -21.5q51 0 93.5 12t69.5 27t55.5 45.5 t42 49.5t38.5 57q10 16 16 23.5t23 18.5t37 11q29 0 48.5 -20t19.5 -47q0 -36 -35 -95q-128 -213 -416 -213q-102 0 -186 28t-143 78t-99 120t-59 153t-19 178zM274 618h611q-8 122 -54 201q-36 62 -98.5 98.5t-146.5 36.5q-97 0 -161.5 -46.5t-100.5 -112.5 q-36 -64 -50 -177z" />
<glyph unicode="f" horiz-adv-x="618" d="M4 997q0 64 102 64h93v100q0 161 45 225q71 105 245 105q88 0 150 -23q47 -16 47 -63q0 -28 -17 -48t-42 -20q-8 0 -49 5.5t-48 5.5q-41 0 -69.5 -9.5t-44.5 -25t-25 -43.5t-11.5 -55.5t-2.5 -69.5v-84h110q22 0 36 -1.5t33.5 -7t29.5 -19.5t10 -36q0 -24 -10.5 -39 t-31 -20.5t-33 -6.5t-34.5 -1h-110v-809q0 -51 -5 -78t-22 -43q-25 -25 -63 -25q-39 0 -64 25q-12 12 -17.5 31.5t-6 35t-0.5 54.5v809h-97q-98 0 -98 67z" />
<glyph unicode="g" horiz-adv-x="1259" d="M90 532q0 82 16 159t52.5 149.5t90 126t133.5 86t177 32.5q64 0 121.5 -15t93 -33t73 -50.5t51.5 -48.5t38 -45v82q0 110 86 110q25 0 42 -9.5t25.5 -21.5t13 -37t5 -41.5t0.5 -49.5v-811q0 -206 -39 -301q-27 -68 -79.5 -118.5t-104.5 -74.5t-118.5 -38t-102.5 -16.5 t-76 -2.5q-105 0 -189 24t-131.5 58t-79 75.5t-42.5 71t-11 49.5q0 28 23 52t59 24q31 0 46.5 -14.5t58.5 -81.5q16 -24 33.5 -42t47.5 -37.5t77 -29.5t108 -10q110 0 188.5 33t110.5 94q28 54 34.5 112.5t8.5 207.5q-23 -23 -41 -39t-54.5 -42.5t-72.5 -43t-88 -29 t-107 -12.5q-90 0 -164 25t-122.5 64t-85 93t-56 104.5t-31.5 106t-15 90.5t-3 65zM272 530q0 -107 27.5 -188t75 -127.5t104 -69t121.5 -22.5q59 0 114.5 21t105 65.5t80 125t30.5 187.5q0 201 -91.5 312.5t-238.5 111.5q-38 0 -76.5 -8.5t-85.5 -36t-82.5 -71 t-59.5 -121.5t-24 -179z" />
<glyph unicode="h" horiz-adv-x="1173" d="M152 123v1220q0 28 0.5 43t5 38.5t13 35.5t25.5 21.5t42 9.5q27 0 45 -9.5t27 -21t14 -35t5.5 -38.5t0.5 -44v-434q32 39 61 67t69 54.5t91.5 40.5t112.5 14q182 0 292 -129q74 -84 74 -274v-559q0 -57 -2.5 -77t-15.5 -38q-26 -33 -74 -33q-24 0 -46 13t-32 37 q-8 20 -8 98v516q0 145 -33 201q-28 48 -79 74t-109 26q-77 0 -147 -39.5t-105 -105.5q-18 -32 -26.5 -58t-15.5 -91.5t-7 -170.5v-354q0 -37 -1 -53.5t-6.5 -35t-17.5 -30.5q-32 -27 -67 -27q-25 0 -42 9.5t-25.5 22t-13 36t-5 38t-0.5 42.5z" />
<glyph unicode="i" horiz-adv-x="491" d="M147 1362q0 40 29 69t70 29t69.5 -29t28.5 -69q0 -41 -28.5 -70.5t-69.5 -29.5t-70 29.5t-29 70.5zM156 121v819q0 53 4 77.5t20 41.5q26 26 68 26q55 0 76 -41q12 -23 12 -104v-819q0 -69 -8 -88q-9 -28 -32 -43t-50 -15q-25 0 -43 10t-27 23t-13.5 35.5t-5.5 37.5 t-1 40z" />
<glyph unicode="j" horiz-adv-x="491" d="M-102 -336q0 10 2 19t8.5 22.5t24.5 22t44 8.5q6 0 37.5 -3t36.5 -3q60 0 83.5 43.5t23.5 165.5v1001q0 48 2 68t12 39q9 14 29.5 26t44.5 12q22 0 38 -5.5t25.5 -18t15 -23.5t8 -31.5t3 -32.5t0.5 -34v-997q0 -121 -9 -173t-28 -85q-68 -117 -233 -117q-23 0 -45 2.5 t-53 11t-50.5 30t-19.5 52.5zM147 1362q0 41 29.5 69.5t71.5 28.5q40 0 69 -28.5t29 -69.5t-29 -70.5t-69 -29.5q-41 0 -71 29.5t-30 70.5z" />
<glyph unicode="k" horiz-adv-x="1087" d="M166 131v1188q0 25 0.5 39t3 38t8 37.5t15 28.5t25.5 22t38 7q62 0 82 -55q6 -18 6 -101v-725l426 410q51 49 65.5 59.5t36.5 10.5q34 0 59 -25t25 -55q0 -15 -8 -29.5t-17 -24t-32 -30.5l-276 -260l342 -494q55 -80 55 -115t-29 -58.5t-61 -23.5q-29 0 -50 19t-53 67 l-327 490l-156 -143v-283q0 -29 -0.5 -44t-5.5 -39t-14 -36t-27 -21.5t-45 -9.5q-25 0 -42 9t-25.5 20t-13 35.5t-5 41t-0.5 50.5z" />
<glyph unicode="l" horiz-adv-x="491" d="M158 121v1222q0 41 0.5 56t5.5 33.5t16 29.5q29 29 66 29q35 0 65 -27q16 -17 20.5 -43t4.5 -78v-1222q0 -52 -4.5 -76.5t-20.5 -42.5q-27 -27 -65 -27q-25 0 -42.5 9.5t-26.5 21.5t-13.5 35t-5 37.5t-0.5 42.5z" />
<glyph unicode="m" horiz-adv-x="1705" d="M135 123v817q0 28 0.5 42.5t4.5 37.5t12 34.5t24 21t39 9.5q28 0 48.5 -16.5t25.5 -36.5q6 -23 6 -119q50 77 131.5 124.5t189.5 47.5q160 0 246 -90q36 -38 56 -96q121 186 327 186q86 0 168 -35.5t121 -113.5q39 -80 39 -207v-606q0 -55 -3.5 -79.5t-19.5 -41.5 q-31 -27 -65 -27q-26 0 -44 10t-27 22.5t-13.5 36.5t-5 38.5t-0.5 42.5v545q0 28 -0.5 44.5t-4 47.5t-10.5 50.5t-21 44t-34 39t-51 24.5t-70 10q-62 0 -122 -29t-91 -82q-21 -35 -32 -73.5t-13 -64.5t-2 -65v-493q0 -41 -0.5 -56t-5.5 -34t-16 -31q-32 -27 -66 -27 q-38 0 -68 27q-11 12 -16 31t-5.5 34t-0.5 56v567q0 22 -0.5 35.5t-4 41.5t-10 47t-20.5 42.5t-33.5 38t-50 25t-69.5 10.5q-72 0 -133.5 -34.5t-86.5 -88.5q-29 -57 -37 -114t-8 -142v-428q0 -41 -0.5 -56t-5.5 -34t-16 -31q-31 -27 -66 -27q-37 0 -67 27 q-16 17 -19.5 41.5t-3.5 79.5z" />
<glyph unicode="n" horiz-adv-x="1173" d="M152 121v823q0 38 0.5 53t5.5 34t16 30q29 24 64 24q23 0 43 -11.5t26 -26.5q12 -21 15.5 -49t3.5 -95q27 36 50.5 60.5t65 56t97.5 48.5t123 17q184 0 299 -131q25 -28 40 -64.5t21 -80.5t7 -68t1 -63v-557v-54.5t-6 -35.5t-18 -31q-29 -25 -64 -25q-37 0 -65 25 q-17 16 -21 41.5t-4 79.5v506q0 144 -33 200q-28 50 -78.5 76.5t-107.5 26.5q-77 0 -147.5 -40.5t-106.5 -107.5q-27 -48 -38 -108.5t-11 -214.5v-338q0 -51 -5 -78t-22 -43q-29 -25 -63 -25q-35 0 -64 25q-12 11 -17.5 31t-6 35.5t-0.5 54.5z" />
<glyph unicode="o" horiz-adv-x="1173" d="M86 510q0 276 132.5 425.5t367.5 149.5q103 0 191.5 -32.5t158 -97.5t109.5 -174t40 -251q0 -114 -26.5 -207.5t-72.5 -157t-109.5 -107t-136 -63.5t-154.5 -20q-122 0 -218.5 42.5t-157 116.5t-92.5 170t-32 206zM268 530q0 -192 85 -303.5t235 -111.5q149 0 232 112 t83 303q0 196 -85.5 306t-229.5 110q-150 0 -235 -113t-85 -303z" />
<glyph unicode="p" horiz-adv-x="1259" d="M150 -283v1227q0 39 0.5 54.5t6 34.5t17.5 28q24 24 62 24q86 0 86 -120v-64q23 28 37.5 43.5t51.5 46.5t73 48t93 31.5t121 14.5q92 0 168 -27t126 -74t86.5 -104t56 -123t28 -123.5t8.5 -113.5q0 -73 -13 -143.5t-47 -145t-85 -130t-135 -91t-189 -35.5 q-66 0 -126.5 17t-100.5 40t-74.5 52t-49 46t-23.5 30v-441q0 -29 -0.5 -44t-5 -38.5t-13.5 -35.5t-26.5 -21.5t-42.5 -9.5q-22 0 -38 5.5t-25.5 18t-15 24t-8 32t-3 32.5t-0.5 35zM326 541q0 -103 26 -182t63.5 -124t87 -73.5t89.5 -37.5t78 -9q146 0 232.5 115t86.5 292 q0 91 -20.5 165.5t-53.5 121.5t-76.5 79t-87 45t-87.5 13q-50 0 -96.5 -12.5t-91 -43t-77.5 -75.5t-53 -115.5t-20 -158.5z" />
<glyph unicode="q" horiz-adv-x="1259" d="M86 520q0 56 8.5 113.5t28 123.5t56 123t86.5 104t126 74t168 27q64 0 121.5 -14.5t93.5 -32t73 -47.5t51.5 -46t37.5 -44v64q0 120 86 120q37 0 61 -24q17 -14 21 -38.5t4 -78.5v-1227q0 -23 -0.5 -35t-3 -32.5t-8 -32t-15 -24t-25.5 -18t-38 -5.5q-25 0 -42.5 9.5 t-26.5 21.5t-13.5 35.5t-5 38.5t-0.5 44v441q-8 -13 -23 -30t-49.5 -46t-74.5 -52t-101 -40t-127 -17q-105 0 -189 35.5t-135 91t-85 130t-47 145t-13 143.5zM268 522q0 -177 87 -292t233 -115q38 0 78 9t89.5 37.5t87 73.5t63.5 124t26 182q0 88 -20 158.5t-53 115.5 t-77.5 75.5t-91 43t-96.5 12.5q-56 0 -110 -22.5t-104 -69.5t-81 -133t-31 -199z" />
<glyph unicode="r" horiz-adv-x="768" d="M158 121v852q0 20 0.5 31t4.5 29t11.5 27.5t23.5 17t38 7.5t37 -7.5t22.5 -17t11 -28t4 -28.5t0.5 -31v-82q34 53 53.5 79t51.5 57.5t69 44.5t84 13q74 0 142.5 -33.5t68.5 -86.5q0 -35 -24 -58.5t-47 -23.5q-18 0 -61.5 15t-86.5 15q-55 0 -96 -24t-65.5 -63.5 t-39 -99.5t-19.5 -121.5t-5 -141.5v-385q0 -32 -9.5 -54t-25 -31.5t-28 -13.5t-25.5 -4q-39 0 -64 25q-13 11 -19 30.5t-6.5 35t-0.5 55.5z" />
<glyph unicode="s" horiz-adv-x="1044" d="M84 268q0 30 23 52t55 22t49.5 -18t32.5 -52q22 -51 53.5 -86.5t89 -59.5t135.5 -24q117 0 182.5 50.5t65.5 119.5q0 24 -5.5 44.5t-18.5 37t-24.5 29t-34.5 24t-36.5 18.5t-42 15.5t-41 12t-41.5 10.5q-159 40 -223 65.5t-110 63.5q-93 78 -93 190q0 73 42 142t114 110 q91 51 242 51q98 0 175 -23t118 -55.5t67.5 -71t34.5 -64.5t8 -42q0 -12 -3.5 -26t-22 -30.5t-50.5 -16.5q-34 0 -49.5 16t-38.5 64q-57 122 -235 122q-102 0 -167 -39.5t-65 -109.5q0 -65 64 -106.5t241 -79.5q49 -11 85 -21t84.5 -27t82.5 -40t65.5 -54.5t47.5 -75 t16 -96.5q0 -35 -7.5 -71t-35.5 -85.5t-73 -87t-131 -64t-199 -26.5q-220 0 -336 113q-90 90 -90 180z" />
<glyph unicode="t" horiz-adv-x="618" d="M37 997q0 64 96 64h51v180q0 62 2.5 85t12.5 42q9 16 29 28.5t44 12.5q22 0 38 -6t25.5 -19t15 -25t8 -34t3 -35t0.5 -39v-190h95q22 0 36 -1.5t34 -7t30 -19.5t10 -36q0 -33 -29.5 -49t-74.5 -16h-101v-631q0 -37 1.5 -60t7.5 -48.5t17 -39.5t31.5 -23t49.5 -9 q8 0 52.5 6t51.5 6q27 0 44.5 -16.5t17.5 -46.5q0 -88 -201 -88q-52 0 -92.5 11t-66.5 26t-44 42.5t-27 49.5t-14 59t-5.5 58t-0.5 59v645h-67q-22 0 -38.5 6.5t-24 15t-12 19.5t-5 15.5t-0.5 8.5z" />
<glyph unicode="u" horiz-adv-x="1173" d="M141 373v565q0 38 1 55t6.5 36t17.5 30q26 26 65 26q37 0 64 -24q12 -12 17.5 -32t6 -35.5t0.5 -55.5v-496q0 -48 1 -74.5t9.5 -64.5t24.5 -65q30 -50 81.5 -78.5t107.5 -28.5q77 0 148 41t106 107q16 31 24 54t15.5 92t7.5 181v332q0 39 0.5 54.5t6 35.5t17.5 31 q30 26 64 26t65 -24q17 -17 21 -42.5t4 -80.5v-821q0 -36 -1 -52.5t-7 -35t-17 -29.5q-25 -25 -61 -25q-25 0 -45 12t-27 27q-14 34 -14 146q-23 -30 -37.5 -46.5t-48 -47t-66 -47t-84 -30.5t-108.5 -14q-94 0 -184 39t-129 117q-32 63 -42 116.5t-10 125.5z" />
<glyph unicode="v" horiz-adv-x="1067" d="M57 1008q0 28 24 52.5t64 24.5q39 0 58 -24.5t41 -85.5l291 -772l288 772q22 61 41 85.5t58 24.5t63.5 -25t24.5 -52q0 -7 -1 -13t-1.5 -11t-3.5 -13.5t-5 -14t-7 -19.5t-9 -24l-324 -807q-17 -40 -24 -56t-22.5 -38t-33.5 -29.5t-44 -7.5q-27 0 -45.5 7.5t-34 29.5 t-23.5 38.5t-24 55.5l-324 807q-2 6 -6.5 18t-6 15.5t-4.5 12t-4 12t-2.5 9.5t-2 9.5t-1 8.5t-0.5 10z" />
<glyph unicode="w" horiz-adv-x="1536" d="M31 1008q0 29 23.5 53t58.5 24q18 0 32 -6t22.5 -12.5t17.5 -25t12.5 -29t13.5 -39.5l235 -764l207 741q11 38 17.5 56t19.5 40t31.5 30.5t46.5 8.5t46.5 -8.5t31.5 -30.5t19.5 -40t17.5 -56l207 -741l235 764q11 35 16.5 49.5t17 32.5t26.5 24t38 6q33 0 57.5 -23.5 t24.5 -53.5q0 -25 -20 -86l-273 -805q-13 -42 -21 -61.5t-22.5 -42t-34 -30.5t-47.5 -8q-30 0 -50.5 10t-35 36t-20.5 43t-18 59l-195 698l-195 -698q-12 -42 -18 -59t-20.5 -43t-35 -36t-50.5 -10q-53 0 -76 31t-49 111l-273 805q-20 70 -20 86z" />
<glyph unicode="x" horiz-adv-x="1044" d="M59 51q0 28 37 80l318 424l-281 365q-43 57 -43 90q0 27 22 51t62 24q31 0 50.5 -16.5t49.5 -58.5l248 -328l244 328q26 35 47.5 53t31 20t25.5 2q35 0 59.5 -22t24.5 -49q0 -35 -47 -94l-276 -357l309 -422q45 -63 45 -90q0 -31 -25 -53.5t-57 -22.5q-13 0 -20.5 1.5 t-21 8t-29 23t-35.5 43.5l-275 381l-278 -385q-29 -39 -49.5 -55.5t-51.5 -16.5q-37 0 -60.5 23.5t-23.5 52.5z" />
<glyph unicode="y" horiz-adv-x="1044" d="M45 1004q0 31 25.5 56t62.5 25q21 0 36 -6.5t27 -24.5t17.5 -30.5t17.5 -42.5l291 -793l301 783q28 72 44.5 93t54.5 21q36 0 57.5 -24.5t21.5 -48.5t-24 -88l-426 -1092q-58 -145 -123.5 -203.5t-187.5 -58.5q-172 0 -172 92q0 28 18 50t51 22q7 0 45.5 -3t44.5 -3 q58 0 89.5 33.5t58.5 97.5l55 141l-362 920q-23 64 -23 84z" />
<glyph unicode="z" horiz-adv-x="1044" d="M25 78q0 42 51 98l526 588q64 71 85.5 100t35.5 58h-490h-4q-31 0 -46.5 0.5t-39.5 2t-35.5 6t-25 12t-18.5 19.5t-5 29q0 20 7.5 34t17 21t28 10.5t30.5 4t34 0.5h621q27 0 40.5 -0.5t36.5 -2.5t35.5 -7.5t26 -14t19.5 -23t6 -34.5q0 -23 -12 -42t-56 -69l-623 -729h629 h17.5h19.5t17.5 -1t18 -2.5t15 -4.5t14.5 -8t9.5 -11.5t7.5 -16t2 -21.5q0 -21 -8 -36t-18.5 -22t-30 -11t-31 -4.5t-33.5 -0.5h-731h-17.5h-22.5t-22.5 1.5t-24.5 4.5t-21 9t-19 14t-11 20.5t-5 28.5z" />
<glyph unicode="{" horiz-adv-x="681" d="M57 530q0 28 2 42t14 28t36 21q107 30 130 113t25 341q1 78 4 122t18.5 108.5t45 98.5t88 60.5t141.5 26.5q76 0 76 -70q0 -54 -18.5 -71t-65.5 -17q-33 0 -56 -12.5t-35.5 -30.5t-19.5 -47.5t-8.5 -54t-1.5 -60.5v-10q0 -98 -0.5 -142.5t-4 -112.5t-12 -98t-22.5 -73.5 t-37 -66.5t-55.5 -48.5t-77.5 -46.5q45 -19 78 -42.5t56 -53.5t37.5 -67t22.5 -81.5t11.5 -98t4 -117.5t-0.5 -138q0 -85 14.5 -128.5t44 -59t87.5 -16.5q24 -2 41.5 -19t17.5 -53q0 -52 -18 -69t-70 -17q-58 0 -103.5 15t-75 36t-50.5 58t-31.5 66.5t-16 76.5t-6.5 73.5 t-2 71.5v2q-3 243 -14 311q-17 96 -73 132q-27 17 -68 28q-24 6 -36 19.5t-14 27.5t-2 43z" />
<glyph unicode="|" horiz-adv-x="532" d="M188 -330v1721q0 22 0.5 33t4 26.5t10.5 22.5t21 12.5t34 5.5q60 0 74 -21t14 -79v-1721q0 -26 -1.5 -40.5t-8 -30t-22 -22.5t-40.5 -7q-32 0 -50 5t-25.5 20.5t-9 29t-1.5 45.5z" />
<glyph unicode="}" horiz-adv-x="681" d="M47 -360q0 54 18.5 71t65.5 17q40 0 66 16.5t37 49.5t14.5 62.5t3.5 75.5v10q0 98 0.5 142.5t4 112.5t12 98t22.5 73.5t37 66.5t55.5 48.5t77.5 46.5q-45 19 -78 42.5t-56 53.5t-37.5 67t-22.5 81.5t-11.5 98t-4 117.5t0.5 138q0 85 -14.5 128.5t-44 59.5t-87.5 17 q-24 2 -41.5 19t-17.5 53q0 52 18 69t70 17q58 0 103.5 -15t75 -36t50.5 -58t31.5 -66.5t16 -76.5t6.5 -73.5t2 -71.5v-2q3 -243 14 -311q17 -96 73 -132q27 -17 68 -28q18 -4 29.5 -12t16 -21.5t5.5 -24.5t1 -33q0 -21 -1 -32t-5.5 -24t-16 -21t-29.5 -13 q-107 -30 -130 -113t-25 -341q-1 -78 -4 -122t-18.5 -108.5t-45 -98.5t-88 -60.5t-141.5 -26.5q-76 0 -76 70z" />
<glyph unicode="~" horiz-adv-x="1193" d="M86 557v205q55 64 130 92.5t149 28.5q103 0 272 -70q96 -41 133 -53t80 -12q45 0 90.5 17.5t81.5 44.5t54.5 44t31.5 31v-211q-56 -52 -120.5 -83.5t-156.5 -31.5q-62 0 -116 15t-127 47q-82 37 -134.5 54t-107.5 17q-42 0 -80 -11t-72.5 -34.5t-55 -41t-52.5 -48.5z" />
<glyph unicode="&#xa1;" horiz-adv-x="681" d="M229 973q0 46 33.5 79t79.5 33q47 0 80 -33t33 -79q0 -47 -33.5 -80t-79.5 -33t-79.5 33t-33.5 80zM239.5 -207q0.5 88 2.5 139l30 596q2 26 3 38t5 33t10.5 30.5t19 17.5t30.5 8t31 -8t19.5 -17.5t11 -30.5t5.5 -33t3 -38l30 -596q9 -220 -2 -278q-6 -33 -25.5 -53 t-36.5 -25.5t-34 -5.5q-30 0 -59.5 19t-38.5 65q-5 51 -4.5 139z" />
<glyph unicode="&#xa2;" d="M86 526q0 228 100 367q27 39 56.5 67.5t77.5 59.5t119 48t161 17q52 0 98 -8l88 285q14 47 29 68.5t39 21.5q19 0 33 -13t14 -30q0 -10 -16 -74l-86 -282q66 -29 116 -72t74.5 -83t35.5 -69.5t11 -46.5q0 -28 -23 -51.5t-57 -23.5q-14 0 -23 2.5t-27 19.5t-36 49 q-23 40 -46 67.5t-36.5 37.5t-33.5 22l-238 -784q35 -6 80 -6q170 0 268 155q9 13 23.5 40.5t24 42t26.5 27.5t37 13q35 0 58.5 -25t23.5 -53q0 -40 -28 -91t-50 -77t-41 -45q-127 -127 -356 -127q-58 0 -107 11l-84 -273q-20 -64 -32 -79q-13 -15 -33 -15q-22 0 -34.5 15.5 t-12.5 35.5q0 24 16 78l80 264q-87 38 -148 101t-89.5 138t-40 140.5t-11.5 134.5zM264 530q0 -116 38 -214.5t120 -153.5l233 778q-21 6 -57 6q-49 0 -94 -12.5t-89.5 -43t-77.5 -76.5t-53 -119t-20 -165z" />
<glyph unicode="&#xa3;" d="M23 731q0 24 9.5 39t28 20.5t31 7t33.5 1.5h84q-33 113 -44 166t-11 104q0 181 123.5 301.5t328.5 120.5q89 0 165 -24.5t126.5 -63t86.5 -86.5t52.5 -94.5t16.5 -87.5q0 -37 -26.5 -61.5t-61.5 -24.5q-42 0 -61.5 23.5t-29.5 60.5q-69 219 -264 219q-122 0 -197 -76.5 t-75 -196.5q0 -56 12 -110t47 -170h240q21 0 32.5 -0.5t30.5 -4t29.5 -10t18.5 -20t8 -33.5q0 -19 -8 -33t-17.5 -20.5t-28.5 -9.5t-29.5 -3.5t-31.5 -0.5h-213q8 -52 8 -134q0 -84 -19 -160t-35 -108t-44 -80q94 15 160 15q55 0 99.5 -7.5t141.5 -29.5q76 -17 123 -17 q27 0 46.5 5.5t90.5 31.5q39 13 54 13q33 0 54 -23.5t21 -56.5q0 -43 -45 -76t-107 -47.5t-126 -14.5q-90 0 -242 45q-156 46 -229 46t-152 -37q-64 -29 -80.5 -35t-33.5 -6q-26 0 -54 25t-28 65q0 23 11.5 39t63.5 65q160 160 160 334q0 70 -20 148h-113q-21 0 -31 0.5 t-28 3.5t-27 10t-16.5 20t-7.5 33z" />
<glyph unicode="&#xa4;" horiz-adv-x="1130" d="M98 354q0 14 7 23.5t40 46.5l66 70q-23 38 -35 63t-23.5 70.5t-11.5 97.5q0 53 11.5 99t23.5 71t35 63l-66 70q-4 4 -11 12q-25 27 -30.5 36t-5.5 24q0 20 13.5 36.5t48.5 45.5q8 8 33 8q14 0 24.5 -7t42.5 -38l70 -66q44 25 66 35.5t69 22.5t100 12t100 -12t69.5 -23 t66.5 -35l69 66q32 31 43.5 38t28.5 7q26 0 58 -34t32 -60q0 -13 -6.5 -22t-40.5 -46l-65 -70q22 -38 34.5 -63t23.5 -71t11 -99q0 -52 -11 -97.5t-23.5 -70.5t-34.5 -63l65 -70q4 -4 11 -12q25 -27 30.5 -36t5.5 -24q0 -20 -13.5 -36.5t-47.5 -45.5q-13 -10 -33 -10 q-13 0 -24 7.5t-44 39.5l-69 66q-44 -24 -66.5 -35t-69.5 -23t-100 -12t-98.5 11t-71 23t-65.5 36l-70 -66q-34 -32 -44.5 -39.5t-27.5 -7.5q-26 0 -58 34t-32 60zM305 725q0 -107 76 -182.5t182 -75.5q108 0 185 75.5t77 182.5t-77.5 183.5t-184.5 76.5q-106 0 -182 -76 t-76 -184z" />
<glyph unicode="&#xa5;" horiz-adv-x="1130" d="M37 1423q0 28 22 48t62 20q42 0 64 -20t51 -70l251 -451q50 -89 76 -153q9 19 84 161l236 441q16 28 22 37.5t21.5 26t34 22.5t45.5 6q33 0 60.5 -16t27.5 -48q0 -8 -1 -15.5t-2 -12t-5 -13t-6 -12t-9 -16t-10 -17.5l-334 -585h242q27 0 40 -1.5t29.5 -7.5t23.5 -21 t7 -40q0 -27 -4.5 -43t-18.5 -22.5t-25.5 -7.5t-38.5 -1h-7h-6h-314v-143h314q49 0 74.5 -13.5t25.5 -58.5q0 -21 -5.5 -35t-12 -21t-22.5 -10.5t-26 -4t-34 -0.5h-314v-201v-20.5v-19v-16t-0.5 -15t-1.5 -12t-2.5 -11.5t-3.5 -9.5t-5 -9.5t-7 -8q-29 -29 -68 -29 q-38 0 -65 27q-17 17 -21 41.5t-4 81.5v201h-313q-22 0 -31.5 0.5t-26 3.5t-24 9.5t-13.5 19.5t-6 32q0 49 24.5 63.5t76.5 14.5h313v143h-313h-16h-16t-14 0.5t-13.5 2t-11 3.5t-11 5t-8 8t-7 11.5t-3 15t-1.5 18.5q0 29 5.5 46t21.5 24t29.5 8.5t44.5 1.5h239l-335 585 q-31 52 -31 82z" />
<glyph unicode="&#xa6;" horiz-adv-x="532" d="M188 258q0 28 1.5 41t7.5 30t21 24t40 7q60 0 74 -21t14 -81v-588q0 -26 -1.5 -40.5t-8 -30t-22 -22.5t-40.5 -7q-32 0 -50 5t-25.5 20.5t-9 29t-1.5 45.5v588zM188 801v590q0 22 0.5 33t4 26.5t10.5 22.5t21 12.5t34 5.5q60 0 74 -21t14 -79v-590q0 -27 -1.5 -41t-8 -30 t-22 -23t-40.5 -7t-41.5 4.5t-25.5 10.5t-13.5 21.5t-5 27t-0.5 37.5z" />
<glyph unicode="&#xa7;" d="M86 639q0 53 19.5 99t42.5 74t62 55t57 36t48 23q-139 100 -139 250q0 42 12 83.5t41.5 84t73 74.5t112.5 52.5t154 20.5q100 0 182 -33.5t128 -82.5t70 -97.5t24 -87.5q0 -32 -25.5 -56t-58.5 -24q-34 0 -53.5 20.5t-36.5 59.5q-32 72 -85.5 114t-146.5 42 q-59 0 -103 -17.5t-67 -44.5t-34 -53.5t-11 -50.5q0 -65 45.5 -109t163.5 -115q280 -171 373 -237q133 -95 133 -250q0 -55 -18.5 -102.5t-41.5 -76.5t-60.5 -56t-58.5 -37.5t-52 -24.5q32 -23 50.5 -38.5t49 -50t46 -80.5t15.5 -101q0 -150 -118 -242t-287 -92 q-103 0 -185.5 30.5t-128 73t-75.5 93t-39.5 85.5t-9.5 56q0 30 24 57t64 27q32 0 54 -20t40 -68q13 -35 23 -56t30.5 -49.5t45 -44.5t64 -27.5t89.5 -11.5q66 0 115.5 19.5t74 49t36 57t11.5 52.5q0 68 -49 115t-192 137q-215 136 -284 182.5t-101 75.5q-113 106 -113 238z M242 655q0 -75 76 -137.5t362 -236.5q31 5 50 9t54 16.5t55.5 27t37 41.5t16.5 61q0 76 -90 158q-37 32 -95.5 71t-285.5 179q-28 -12 -42.5 -18.5t-45 -25t-47.5 -36.5t-31 -47t-14 -62z" />
<glyph unicode="&#xa8;" horiz-adv-x="681" d="M76 1311q0 40 28 68t68 28t68 -28t28 -68t-28 -68.5t-68 -28.5t-68 28.5t-28 68.5zM414 1311q0 40 28 68t68 28t68 -28t28 -68t-28 -68.5t-68 -28.5t-68 28.5t-28 68.5z" />
<glyph unicode="&#xa9;" horiz-adv-x="1515" d="M2 737q0 154 60.5 294.5t162 240.5t241 159.5t292.5 59.5q205 0 378.5 -100.5t275 -274.5t101.5 -379t-101 -378.5t-275 -275t-379 -101.5q-154 0 -294 59.5t-241 160.5t-161 241t-60 294zM129 737q0 -171 84 -315.5t229 -228.5t316 -84t315.5 84t228.5 228.5t84 315.5 q0 129 -50 245.5t-134.5 200t-200.5 132.5t-243 49q-170 0 -314.5 -83t-229.5 -227.5t-85 -316.5zM362 735q0 196 108 310t296 114q123 0 215 -58.5t127 -176.5l-119 -29q-23 58 -63 94q-67 60 -164 60q-69 0 -121.5 -28t-82 -75t-44 -101.5t-14.5 -113.5q0 -152 71 -230.5 t181 -78.5q20 0 42 3t55 15t60 31.5t52.5 56.5t37.5 86l123 -36q-32 -134 -133 -204.5t-229 -70.5q-177 0 -287.5 116t-110.5 316z" />
<glyph unicode="&#xaa;" horiz-adv-x="747" d="M47 1001q0 27 7 51t16.5 41.5t28 33t34 26t43.5 20.5t45.5 15.5t51.5 11.5l51 9t53 8q63 9 89 15.5t60 20.5q-2 28 -3.5 41.5t-9.5 34.5t-22 31t-40.5 18t-65.5 8q-138 0 -174 -67q-2 -3 -7.5 -13.5t-7 -13t-6 -10.5t-6.5 -10t-7 -7.5t-8.5 -7t-9 -4.5t-11.5 -3.5 t-13 -0.5q-26 0 -43.5 16.5t-17.5 39.5q0 17 6.5 37.5t27 48t52 49t88 36.5t127.5 15q66 0 115.5 -9t80 -29t49.5 -42t28 -57t11.5 -64t2.5 -73v-199q0 -46 16 -96q14 -43 14 -60q0 -23 -20 -39t-47 -16q-56 0 -82 96q-117 -94 -262 -94q-113 0 -173.5 56.5t-60.5 135.5z M188 1008q0 -34 30.5 -62t88.5 -28q104 0 168 55q30 26 40.5 63.5t10.5 108.5q-76 -22 -149 -33q-107 -16 -148 -36t-41 -68z" />
<glyph unicode="&#xab;" d="M156 516q0 18 37 78l204 324q41 63 78 63q28 0 48 -18.5t20 -44.5q0 -6 -1.5 -12t-5 -13l-6 -12t-8 -14.5t-8.5 -14.5l-201 -334l205 -338q25 -45 25 -63q0 -25 -19.5 -43.5t-44.5 -18.5q-22 0 -39 12t-45 56l-202 319q-37 62 -37 74zM594 516q0 18 37 78l205 324 q41 63 77 63q28 0 48 -18.5t20 -44.5q0 -6 -1.5 -12t-5 -13l-6 -12t-8 -14.5t-8.5 -14.5l-200 -334l204 -338q25 -45 25 -63q0 -25 -19 -43.5t-44 -18.5q-22 0 -39 12t-45 56l-203 319q-37 62 -37 74z" />
<glyph unicode="&#xac;" horiz-adv-x="1193" d="M113 862v168h970v-606h-168v438h-802z" />
<glyph unicode="&#xad;" horiz-adv-x="681" d="M43 512q0 24 9.5 41t21 25t34 12.5t36.5 5t40 0.5h314q25 0 39 -0.5t36.5 -5t34.5 -12.5t21.5 -25t9.5 -41t-9.5 -41t-21 -25t-34 -12.5t-36.5 -5t-40 -0.5h-314q-25 0 -39 0.5t-36.5 5t-34.5 12.5t-21.5 25t-9.5 41z" />
<glyph unicode="&#xae;" horiz-adv-x="1515" d="M2 737q0 154 60.5 294.5t162 240.5t241 159.5t292.5 59.5q205 0 378.5 -100.5t275 -274.5t101.5 -379t-101 -378.5t-275 -275t-379 -101.5q-154 0 -294 59.5t-241 160.5t-161 241t-60 294zM129 737q0 -171 84 -315.5t229 -228.5t316 -84t315.5 84t228.5 228.5t84 315.5 q0 129 -50 245.5t-134.5 200t-200.5 132.5t-243 49q-170 0 -314.5 -83t-229.5 -227.5t-85 -316.5zM426 319v811h281q48 0 74.5 -1t67 -6t71.5 -17.5t55 -32.5q78 -65 78 -162q0 -36 -13 -72.5t-39.5 -71t-73 -58t-106.5 -27.5q42 -16 81.5 -55t107.5 -150l98 -158h-160 l-71 127q-75 135 -120 176.5t-122 41.5h-78v-345h-131zM557 776h160q22 0 36 0.5t41 3.5t44.5 11.5t36.5 21t28.5 35t9.5 51.5t-9 51t-27.5 34.5t-35.5 20.5t-45.5 11t-44.5 3.5t-44 0.5h-150v-244z" />
<glyph unicode="&#xaf;" horiz-adv-x="681" d="M29 1296q0 29 5.5 46t21 24t29 8.5t44.5 1.5h424q22 0 32 -0.5t26 -4t23 -10t13 -20.5t6 -34q0 -29 -5.5 -46t-21 -24t-29 -8.5t-44.5 -1.5h-424q-22 0 -32 0.5t-26 4t-23 10t-13 20.5t-6 34z" />
<glyph unicode="&#xb0;" horiz-adv-x="811" d="M129 1214q0 116 80.5 196.5t196.5 80.5q115 0 195.5 -81.5t80.5 -195.5q0 -116 -81 -197t-195 -81q-115 0 -196 81t-81 197zM238 1214q0 -70 49.5 -120t118.5 -50t118 50t49 120q0 69 -48.5 118.5t-118.5 49.5t-119 -49.5t-49 -118.5z" />
<glyph unicode="&#xb1;" horiz-adv-x="1193" d="M113 0v168h970v-168h-970zM113 662v167h401v402h168v-402h401v-167h-401v-402h-168v402h-401z" />
<glyph unicode="&#xb2;" horiz-adv-x="681" d="M45 778q0 30 21.5 64t60 67.5t65.5 53.5t64 45q159 107 202.5 148t43.5 95q0 56 -47.5 88.5t-108.5 32.5q-60 0 -99.5 -24.5t-53.5 -57.5q-23 -53 -35.5 -67.5t-40.5 -14.5q-20 0 -39 12t-19 42q0 31 17 65.5t50 66.5t90 53t128 21q73 0 128.5 -17.5t85 -42t47.5 -56.5 t23 -55t5 -44q0 -36 -14 -69.5t-31 -57t-56.5 -56t-65.5 -51t-83 -56.5q-6 -4 -26.5 -18t-28.5 -19.5t-25 -17.5t-26 -19.5t-22 -18t-22.5 -20t-17.5 -19.5q35 -2 59 -2h273q19 0 31 -1t30.5 -5.5t28.5 -17t10 -31.5q0 -53 -76 -53h-442q-84 0 -84 57z" />
<glyph unicode="&#xb3;" horiz-adv-x="681" d="M49 915q0 21 18 35.5t42 14.5q18 0 31 -8.5t17 -16t13 -25.5q44 -110 166 -110q76 0 123 42.5t47 98.5q0 52 -40 88.5t-108 36.5q-6 0 -38.5 -2t-38.5 -2q-20 0 -37 12t-17 35q0 51 72 51q48 0 83 11t51 24t25 31.5t10 26t1 14.5q0 40 -36 72t-97 32q-36 0 -63 -9 t-46 -28.5t-28.5 -34t-22.5 -40.5q-14 -29 -51 -29q-29 0 -42 17.5t-13 33.5q0 23 15 52t44.5 59t84 50.5t122.5 20.5q124 0 194 -57t70 -139q0 -93 -98 -146q139 -45 139 -178q0 -97 -76 -168t-217 -71q-111 0 -169 31t-95 83q-35 49 -35 92z" />
<glyph unicode="&#xb4;" horiz-adv-x="681" d="M227 1223q0 12 21 53l51 100q34 69 55 81.5t92 12.5h50q37 0 49 -3t12 -13q0 -9 -8 -20.5t-41 -47.5q-117 -124 -160 -162t-76 -38q-21 0 -33 12t-12 25z" />
<glyph unicode="&#xb5;" horiz-adv-x="1130" d="M135 -246v1184q0 80 15 109q9 14 29.5 26t45.5 12q37 0 64 -24q12 -12 17.5 -32.5t6 -36t0.5 -54.5v-395q0 -150 17.5 -217t58.5 -113q67 -74 170 -74q56 0 114.5 26.5t98.5 92.5q20 34 30 92t11.5 107t1.5 153v328q0 51 5 78t22 43q26 26 63 26q23 0 44.5 -11.5 t29.5 -26.5q3 -5 5 -9t3.5 -9t2.5 -8t1.5 -9.5t1 -10t0.5 -12.5v-13.5v-16.5v-19v-823q0 -26 -0.5 -40t-5 -36.5t-13 -34.5t-25.5 -21.5t-42 -9.5t-42 10t-25.5 22.5t-13 36.5t-5 38.5t-0.5 42.5q-13 -24 -22 -37.5t-31.5 -38t-47 -38.5t-64.5 -25t-89 -11q-57 0 -101 12.5 t-74.5 38t-47 45t-37.5 52.5v-449q0 -42 -19.5 -73t-66.5 -31q-34 0 -61 24q-17 17 -21 49t-4 111z" />
<glyph unicode="&#xb6;" horiz-adv-x="1110" d="M2 1044q0 124 56 226t165 149q51 22 101 33t77.5 12.5t73.5 1.5h633v-172h-143v-1702h-172v1702h-215v-1702h-172v1045q-100 6 -179 41.5t-127 91.5t-73 125.5t-25 148.5z" />
<glyph unicode="&#xb7;" horiz-adv-x="491" d="M133 721q0 46 33 79.5t80 33.5q46 0 79 -33.5t33 -79.5q0 -47 -33 -80t-79 -33q-47 0 -80 33t-33 80z" />
<glyph unicode="&#xb8;" horiz-adv-x="681" d="M86 -340q0 8 4 16.5t21.5 17.5t46.5 9q32 0 51.5 0.5t52 4.5t51.5 12t34 24t15 39q0 33 -29.5 52.5t-62.5 19.5q-38 0 -55.5 12t-17.5 45q0 20 6.5 44t31.5 48.5t64 24.5q16 0 26.5 -4.5t16.5 -10.5t8.5 -22.5t3 -28.5t0.5 -39v-8q158 -19 158 -139q0 -72 -73 -121 t-226 -49q-127 0 -127 53z" />
<glyph unicode="&#xb9;" horiz-adv-x="681" d="M92 1237q0 20 13 31t47 24q36 12 95.5 49t102.5 89q25 36 56 36q59 0 59 -80v-595q0 -82 -64 -82q-23 0 -38 8.5t-20.5 24.5t-7 28t-1.5 31v479q-128 -92 -193 -92q-19 0 -34 13t-15 36z" />
<glyph unicode="&#xba;" horiz-adv-x="747" d="M41 1139q0 164 88.5 258t243.5 94q143 0 237.5 -85.5t94.5 -256.5q0 -170 -94 -255t-238 -85q-157 0 -244.5 93.5t-87.5 236.5zM180 1149q0 -106 51 -167.5t144 -61.5q91 0 140.5 61.5t49.5 167.5t-49.5 168.5t-140.5 62.5q-92 0 -143.5 -62.5t-51.5 -168.5z" />
<glyph unicode="&#xbb;" d="M172 117q0 18 25 63l204 338l-200 334q-3 5 -8.5 14.5t-8 14.5l-6 12t-5 13t-1.5 12q0 26 20 44.5t48 18.5q36 0 77 -63l205 -324q37 -60 37 -78q0 -12 -37 -74l-203 -319q-28 -44 -45 -56t-38 -12q-25 0 -44.5 18.5t-19.5 43.5zM610 117q0 18 25 63l205 338l-201 334 q-3 5 -8.5 14.5t-8 14.5l-6 12t-5 13t-1.5 12q0 26 20 44.5t48 18.5q37 0 78 -63l205 -324q36 -58 36 -78q0 -13 -36 -74l-203 -319q-28 -44 -45 -56t-39 -12q-25 0 -44.5 18.5t-19.5 43.5z" />
<glyph unicode="&#xbc;" horiz-adv-x="1705" d="M92 1237q0 20 13 31t47 24q36 12 95.5 49t102.5 89q25 36 56 36q59 0 59 -80v-595q0 -82 -64 -82q-23 0 -38 8.5t-20.5 24.5t-7 28t-1.5 31v479q-128 -92 -193 -92q-19 0 -34 13t-15 36zM313 -6q0 23 23 53l930 1374q3 5 10 14.5t9.5 13l7.5 10.5t7.5 9.5t7 7.5t7.5 6 t7.5 3.5t9 3t9.5 0.5q22 0 38 -16.5t16 -36.5t-39 -76l-926 -1368q-31 -45 -61 -45q-23 0 -39.5 16.5t-16.5 30.5zM1022 233q0 14 6.5 24.5t30.5 37.5l362 416q26 28 40.5 36.5t31.5 8.5q22 0 36 -7.5t19.5 -22.5t6.5 -25.5t1 -28.5v-400h48q16 0 26 -1t26 -5.5t24 -16 t8 -30.5q0 -49 -80 -49h-52v-100q0 -13 -0.5 -21t-3.5 -21t-9 -20.5t-18.5 -13.5t-29.5 -6q-22 0 -35.5 7.5t-18.5 22t-6 24.5t-1 28v100h-301q-25 0 -38.5 1t-33.5 6.5t-29.5 19.5t-9.5 36zM1171 272h263v301z" />
<glyph unicode="&#xbd;" horiz-adv-x="1705" d="M92 1237q0 20 13 31t47 24q36 12 95.5 49t102.5 89q25 36 56 36q59 0 59 -80v-595q0 -82 -64 -82q-23 0 -38 8.5t-20.5 24.5t-7 28t-1.5 31v479q-128 -92 -193 -92q-19 0 -34 13t-15 36zM313 -6q0 23 23 53l930 1374q3 5 10 14.5t9.5 13l7.5 10.5t7.5 9.5t7 7.5t7.5 6 t7.5 3.5t9 3t9.5 0.5q22 0 38 -16.5t16 -36.5t-39 -76l-926 -1368q-31 -45 -61 -45q-23 0 -39.5 16.5t-16.5 30.5zM1069 57q0 30 21.5 64t60 67.5t65.5 53.5t64 45q159 107 202.5 148t43.5 95q0 56 -47.5 88.5t-108.5 32.5q-60 0 -99.5 -24.5t-53.5 -57.5 q-23 -53 -35.5 -67.5t-40.5 -14.5q-20 0 -39 12t-19 42q0 31 17 65.5t50 67t90 53.5t128 21q73 0 128.5 -17.5t85 -42t47.5 -57t23 -55.5t5 -44q0 -36 -14 -69.5t-31 -57t-56.5 -56t-65.5 -51t-83 -56.5q-8 -6 -30.5 -21l-33 -22t-29 -20.5t-29.5 -22.5t-24 -21.5t-22 -23.5 q35 -2 59 -2h273q100 0 100 -56q0 -53 -76 -53h-442q-84 0 -84 57z" />
<glyph unicode="&#xbe;" horiz-adv-x="1705" d="M49 915q0 21 18 35.5t42 14.5q18 0 31 -8.5t17 -16t13 -25.5q44 -110 166 -110q76 0 123 42.5t47 98.5q0 52 -40 88.5t-108 36.5q-6 0 -38.5 -2t-38.5 -2q-20 0 -37 12t-17 35q0 51 72 51q48 0 83 11t51 24t25 31.5t10 26t1 14.5q0 40 -36 72t-97 32q-36 0 -63 -9 t-46 -28.5t-28.5 -34t-22.5 -40.5q-14 -29 -51 -29q-29 0 -42 17.5t-13 33.5q0 23 15 52t44.5 59t84 50.5t122.5 20.5q124 0 194 -57t70 -139q0 -93 -98 -146q139 -45 139 -178q0 -97 -76 -168t-217 -71q-111 0 -169 31t-95 83q-35 49 -35 92zM336 -6q0 20 22 53l932 1374 q19 28 27.5 39.5t21 20t27.5 8.5q22 0 37.5 -16.5t15.5 -36.5t-39 -76l-927 -1368q-29 -45 -60 -45q-24 0 -40.5 16.5t-16.5 30.5zM1022 233q0 14 6.5 24.5t30.5 37.5l362 416q26 28 40.5 36.5t31.5 8.5q22 0 36 -7.5t19.5 -22.5t6.5 -25.5t1 -28.5v-400h48q16 0 26 -1 t26 -5.5t24 -16t8 -30.5q0 -49 -80 -49h-52v-100q0 -13 -0.5 -21t-3.5 -21t-9 -20.5t-18.5 -13.5t-29.5 -6q-22 0 -35.5 7.5t-18.5 22t-6 24.5t-1 28v100h-301q-25 0 -38.5 1t-33.5 6.5t-29.5 19.5t-9.5 36zM1171 272h263v301z" />
<glyph unicode="&#xbf;" horiz-adv-x="1087" d="M88 -39q0 98 47 177.5t156 183.5q67 65 97.5 96.5t51 68t25.5 61t12 83.5q9 82 84 82q86 0 86 -107q0 -120 -44 -197t-150 -173q-45 -41 -65 -59.5t-47.5 -49t-38.5 -52t-19.5 -50.5t-8.5 -62q0 -98 73.5 -170t187.5 -72q204 0 268 234q7 20 11 29.5t15 26.5t28 24.5 t40 7.5q35 0 63.5 -25t28.5 -69q0 -27 -13.5 -69t-48.5 -97t-85.5 -101.5t-134.5 -79t-185 -32.5q-107 0 -192.5 34.5t-136.5 91.5t-78 125t-27 140zM430 973q0 46 33.5 79t79.5 33q47 0 79.5 -33t32.5 -79q0 -47 -33 -80t-79 -33t-79.5 33t-33.5 80z" />
<glyph unicode="&#xc0;" horiz-adv-x="1409" d="M39 61q0 27 29 103l464 1153q12 32 18 46.5t17 37.5t18.5 33t19.5 24t24 19.5t28.5 9.5t36.5 4q28 0 56 -11.5t43 -29.5q23 -27 65 -131l481 -1147q31 -79 31 -106q0 -32 -28 -61.5t-70 -29.5q-45 0 -65 24.5t-46 89.5q-3 7 -4 11l-131 324h-653l-127 -328 q-14 -34 -18 -43.5t-15 -31t-20 -27.5t-24.5 -12.5t-35.5 -6.5q-38 0 -66 27t-28 59zM428 582h539l-275 686zM524 1837q0 10 12 13t49 3h50q71 0 92 -12.5t55 -81.5l51 -100q21 -41 21 -53q0 -13 -12 -25t-33 -12q-34 0 -81 41t-155 159q-33 36 -41 47.5t-8 20.5z" />
<glyph unicode="&#xc1;" horiz-adv-x="1409" d="M39 61q0 27 29 103l464 1153q12 32 18 46.5t17 37.5t18.5 33t19.5 24t24 19.5t28.5 9.5t36.5 4q28 0 56 -11.5t43 -29.5q23 -27 65 -131l481 -1147q31 -79 31 -106q0 -32 -28 -61.5t-70 -29.5q-45 0 -65 24.5t-46 89.5q-3 7 -4 11l-131 324h-653l-127 -328 q-14 -34 -18 -43.5t-15 -31t-20 -27.5t-24.5 -12.5t-35.5 -6.5q-38 0 -66 27t-28 59zM428 582h539l-275 686zM592 1606q0 12 21 53l51 100q34 69 55 81.5t92 12.5h50q37 0 49 -3t12 -13q0 -9 -8 -20.5t-41 -47.5q-117 -124 -160 -162t-76 -38q-21 0 -33 12t-12 25z" />
<glyph unicode="&#xc2;" horiz-adv-x="1409" d="M39 61q0 27 29 103l464 1153q12 32 18 46.5t17 37.5t18.5 33t19.5 24t24 19.5t28.5 9.5t36.5 4q28 0 56 -11.5t43 -29.5q23 -27 65 -131l481 -1147q31 -79 31 -106q0 -32 -28 -61.5t-70 -29.5q-45 0 -65 24.5t-46 89.5q-3 7 -4 11l-131 324h-653l-127 -328 q-14 -34 -18 -43.5t-15 -31t-20 -27.5t-24.5 -12.5t-35.5 -6.5q-38 0 -66 27t-28 59zM418 1600q0 11 35 53l82 104q43 56 62 75t44 28.5t70 9.5q54 0 80.5 -19t85.5 -94l86 -108q31 -37 31 -49q0 -17 -33 -17q-74 0 -88 4q-16 1 -25.5 10t-46.5 54l-94 118l-92 -118 q-35 -46 -51 -57t-52 -11q-78 0 -86 4t-8 13zM428 582h539l-275 686z" />
<glyph unicode="&#xc3;" horiz-adv-x="1409" d="M39 61q0 27 29 103l464 1153q12 32 18 46.5t17 37.5t18.5 33t19.5 24t24 19.5t28.5 9.5t36.5 4q28 0 56 -11.5t43 -29.5q23 -27 65 -131l481 -1147q31 -79 31 -106q0 -32 -28 -61.5t-70 -29.5q-45 0 -65 24.5t-46 89.5q-3 7 -4 11l-131 324h-653l-127 -328 q-14 -34 -18 -43.5t-15 -31t-20 -27.5t-24.5 -12.5t-35.5 -6.5q-38 0 -66 27t-28 59zM402 1669q0 56 38.5 102t100.5 46q70 0 162 -41q113 -45 149 -45q25 0 38.5 11t23.5 34q6 15 9.5 22t13.5 16t22 9q19 0 35 -18.5t16 -47.5q0 -15 -4 -32.5t-15 -38.5t-26.5 -37.5 t-42 -27.5t-59.5 -11q-17 0 -28 1.5t-43 11t-89 30.5q-107 43 -150 43q-17 0 -29.5 -9.5t-17.5 -19.5t-14 -33q-16 -32 -35 -32q-21 0 -38 17t-17 50zM428 582h539l-275 686z" />
<glyph unicode="&#xc4;" horiz-adv-x="1409" d="M39 61q0 27 29 103l464 1153q12 32 18 46.5t17 37.5t18.5 33t19.5 24t24 19.5t28.5 9.5t36.5 4q28 0 56 -11.5t43 -29.5q23 -27 65 -131l481 -1147q31 -79 31 -106q0 -32 -28 -61.5t-70 -29.5q-45 0 -65 24.5t-46 89.5q-3 7 -4 11l-131 324h-653l-127 -328 q-14 -34 -18 -43.5t-15 -31t-20 -27.5t-24.5 -12.5t-35.5 -6.5q-38 0 -66 27t-28 59zM428 582h539l-275 686zM441 1694q0 40 28 68t68 28t68 -28t28 -68t-28 -68.5t-68 -28.5t-68 28.5t-28 68.5zM779 1694q0 40 28 68t68 28t68 -28t28 -68t-28 -68.5t-68 -28.5t-68 28.5 t-28 68.5z" />
<glyph unicode="&#xc5;" horiz-adv-x="1409" d="M39 61q0 27 29 103l464 1153q12 32 18 46.5t17 37.5t18.5 33t19.5 24t24 19.5t28.5 9.5t36.5 4q28 0 56 -11.5t43 -29.5q23 -27 65 -131l481 -1147q31 -79 31 -106q0 -32 -28 -61.5t-70 -29.5q-45 0 -65 24.5t-46 89.5q-3 7 -4 11l-131 324h-653l-127 -328 q-14 -34 -18 -43.5t-15 -31t-20 -27.5t-24.5 -12.5t-35.5 -6.5q-38 0 -66 27t-28 59zM428 582h539l-275 686zM517 1726q0 79 56 135t134 56q77 0 132.5 -56.5t55.5 -134.5q0 -77 -55.5 -132.5t-134.5 -55.5q-78 0 -133 55.5t-55 132.5zM598 1726q0 -44 32 -75t75 -31 q45 0 77 31t32 75q0 45 -32 77t-77 32q-44 0 -75.5 -32.5t-31.5 -76.5z" />
<glyph unicode="&#xc6;" horiz-adv-x="2048" d="M27 61q0 31 34 103l562 1186q17 37 23 50t20.5 31.5t19.5 21.5t27 8.5t37 5t55 -0.5h993q24 0 37 -0.5t34.5 -4.5t32.5 -12t20 -24t9 -39t-9 -38.5t-19 -23t-33 -11.5t-33.5 -4h-38.5h-622v-471h571q25 0 38 -0.5t34.5 -4.5t32 -12t19.5 -24t9 -39t-9 -38.5t-19 -23.5 t-32.5 -11.5t-34 -4t-38.5 -0.5h-571v-522h645q23 0 32 -0.5t29.5 -2t30 -6.5t21.5 -13t17 -22.5t5 -33.5q0 -23 -9 -39t-20 -24t-32.5 -12t-34.5 -4.5t-39 -0.5h-676q-40 0 -62.5 1.5t-43.5 7.5t-31 15.5t-17.5 29.5t-9.5 45t-2 65v250h-594l-141 -308q-38 -85 -58.5 -108 t-64.5 -23q-50 0 -72 30.5t-22 55.5zM457 571h522v742h-182z" />
<glyph unicode="&#xc7;" horiz-adv-x="1492" d="M113 733q0 225 87.5 398t243 266.5t353.5 93.5q121 0 224 -37t165.5 -90t107 -114t62.5 -107.5t18 -71.5q0 -32 -21 -59t-59 -27q-17 0 -33 8.5t-26.5 17.5t-25 30.5t-19.5 30.5t-19 34q-55 107 -157 170q-91 57 -209 57q-66 0 -130 -16.5t-131 -59.5t-117 -109.5 t-82 -175.5t-32 -247t31.5 -245.5t79.5 -171t113.5 -105t126.5 -56t124 -14.5q313 0 426 322q7 19 12.5 30.5t15.5 25.5t25.5 21t35.5 7q33 0 58 -23t25 -57q0 -41 -18.5 -98.5t-64 -126t-109 -125.5t-165.5 -95.5t-222 -38.5l-14 -51q180 -33 180 -157q0 -38 -16.5 -68.5 t-40 -50t-59 -33.5t-64 -20.5t-64 -10t-51.5 -4t-33 -0.5q-125 0 -125 55q0 27 27 37t92 13q103 2 129 11q20 7 33 21q22 22 22 52q0 31 -29 55t-57 24q-3 0 -18 -3t-17 -3q-19 0 -38 18.5t-19 43.5q0 16 12 28.5t49 39.5q7 5 11 8q-135 15 -228.5 55.5t-166.5 116.5 q-99 101 -154 257t-55 324z" />
<glyph unicode="&#xc8;" horiz-adv-x="1300" d="M178 164v1139v13q0 54 4 77t23 43q19 21 43.5 25.5t93.5 4.5h715h31.5t29 -2t30 -6.5t21.5 -12.5t18 -22.5t5 -33.5q0 -24 -9 -40t-19.5 -23.5t-33.5 -11.5t-34.5 -4.5t-38.5 -0.5h-682v-471h626q24 0 37 -0.5t34 -4.5t32 -11.5t20 -23.5t9 -38q0 -23 -8.5 -39t-19.5 -24 t-32 -12t-34 -4.5t-38 -0.5h-626v-522h710q22 0 31 -0.5t29.5 -2t30.5 -6.5t22.5 -13t17.5 -22.5t5 -33.5q0 -24 -9.5 -40t-20 -23.5t-33.5 -11.5t-34.5 -4.5t-38.5 -0.5h-743q-70 0 -91.5 4t-43.5 25q-20 19 -24.5 43t-4.5 92zM438 1837q0 10 12 13t49 3h50q71 0 92 -12.5 t55 -81.5l51 -100q21 -41 21 -53q0 -13 -12 -25t-33 -12q-34 0 -81 41t-155 159q-33 36 -41 47.5t-8 20.5z" />
<glyph unicode="&#xc9;" horiz-adv-x="1300" d="M178 164v1139v13q0 54 4 77t23 43q19 21 43.5 25.5t93.5 4.5h715h31.5t29 -2t30 -6.5t21.5 -12.5t18 -22.5t5 -33.5q0 -24 -9 -40t-19.5 -23.5t-33.5 -11.5t-34.5 -4.5t-38.5 -0.5h-682v-471h626q24 0 37 -0.5t34 -4.5t32 -11.5t20 -23.5t9 -38q0 -23 -8.5 -39t-19.5 -24 t-32 -12t-34 -4.5t-38 -0.5h-626v-522h710q22 0 31 -0.5t29.5 -2t30.5 -6.5t22.5 -13t17.5 -22.5t5 -33.5q0 -24 -9.5 -40t-20 -23.5t-33.5 -11.5t-34.5 -4.5t-38.5 -0.5h-743q-70 0 -91.5 4t-43.5 25q-20 19 -24.5 43t-4.5 92zM536 1606q0 12 21 53l51 100q34 69 55 81.5 t92 12.5h50q37 0 49 -3t12 -13q0 -9 -8 -20.5t-41 -47.5q-117 -124 -160 -162t-76 -38q-21 0 -33 12t-12 25z" />
<glyph unicode="&#xca;" horiz-adv-x="1300" d="M178 164v1139v13q0 54 4 77t23 43q19 21 43.5 25.5t93.5 4.5h715h31.5t29 -2t30 -6.5t21.5 -12.5t18 -22.5t5 -33.5q0 -24 -9 -40t-19.5 -23.5t-33.5 -11.5t-34.5 -4.5t-38.5 -0.5h-682v-471h626q24 0 37 -0.5t34 -4.5t32 -11.5t20 -23.5t9 -38q0 -23 -8.5 -39t-19.5 -24 t-32 -12t-34 -4.5t-38 -0.5h-626v-522h710q22 0 31 -0.5t29.5 -2t30.5 -6.5t22.5 -13t17.5 -22.5t5 -33.5q0 -24 -9.5 -40t-20 -23.5t-33.5 -11.5t-34.5 -4.5t-38.5 -0.5h-743q-70 0 -91.5 4t-43.5 25q-20 19 -24.5 43t-4.5 92zM362 1600q0 11 35 53l82 104q43 56 62 75 t44 28.5t70 9.5q54 0 80.5 -19t85.5 -94l86 -108q31 -37 31 -49q0 -17 -33 -17q-74 0 -88 4q-16 1 -25.5 10t-46.5 54l-94 118l-92 -118q-35 -46 -51 -57t-52 -11q-78 0 -86 4t-8 13z" />
<glyph unicode="&#xcb;" horiz-adv-x="1300" d="M178 164v1139v13q0 54 4 77t23 43q19 21 43.5 25.5t93.5 4.5h715h31.5t29 -2t30 -6.5t21.5 -12.5t18 -22.5t5 -33.5q0 -24 -9 -40t-19.5 -23.5t-33.5 -11.5t-34.5 -4.5t-38.5 -0.5h-682v-471h626q24 0 37 -0.5t34 -4.5t32 -11.5t20 -23.5t9 -38q0 -23 -8.5 -39t-19.5 -24 t-32 -12t-34 -4.5t-38 -0.5h-626v-522h710q22 0 31 -0.5t29.5 -2t30.5 -6.5t22.5 -13t17.5 -22.5t5 -33.5q0 -24 -9.5 -40t-20 -23.5t-33.5 -11.5t-34.5 -4.5t-38.5 -0.5h-743q-70 0 -91.5 4t-43.5 25q-20 19 -24.5 43t-4.5 92zM385 1694q0 40 28 68t68 28t68 -28t28 -68 t-28 -68.5t-68 -28.5t-68 28.5t-28 68.5zM723 1694q0 40 28 68t68 28t68 -28t28 -68t-28 -68.5t-68 -28.5t-68 28.5t-28 68.5z" />
<glyph unicode="&#xcc;" horiz-adv-x="598" d="M119 1837q0 10 12 13t49 3h50q71 0 92 -12.5t55 -81.5l51 -100q21 -41 21 -53q0 -13 -12 -25t-33 -12q-34 0 -81 41t-155 159q-33 36 -41 47.5t-8 20.5zM201 137v1192q0 45 0.5 62t6.5 37t19 32q31 31 72 31q44 0 72 -31q13 -12 19 -32.5t6.5 -37.5t0.5 -61v-1192 q0 -45 -0.5 -62t-6.5 -37t-19 -32q-31 -31 -72 -31q-43 0 -72 29q-13 13 -19 33.5t-6.5 37.5t-0.5 62z" />
<glyph unicode="&#xcd;" horiz-adv-x="598" d="M186 1606q0 12 21 53l51 100q34 69 55 81.5t92 12.5h50q37 0 49 -3t12 -13q0 -9 -8 -20.5t-41 -47.5q-117 -124 -160 -162t-76 -38q-21 0 -33 12t-12 25zM201 137v1192q0 45 0.5 62t6.5 37t19 32q31 31 72 31q44 0 72 -31q13 -12 19 -32.5t6.5 -37.5t0.5 -61v-1192 q0 -45 -0.5 -62t-6.5 -37t-19 -32q-31 -31 -72 -31q-43 0 -72 29q-13 13 -19 33.5t-6.5 37.5t-0.5 62z" />
<glyph unicode="&#xce;" horiz-adv-x="598" d="M12 1600q0 11 35 53l82 104q43 56 62 75t44 28.5t70 9.5q54 0 80.5 -19t85.5 -94l86 -108q31 -37 31 -49q0 -17 -33 -17q-74 0 -88 4q-16 1 -25.5 10t-46.5 54l-94 118l-92 -118q-35 -46 -51 -57t-52 -11q-78 0 -86 4t-8 13zM201 137v1192q0 45 0.5 62t6.5 37t19 32 q31 31 72 31q44 0 72 -31q13 -12 19 -32.5t6.5 -37.5t0.5 -61v-1192q0 -45 -0.5 -62t-6.5 -37t-19 -32q-31 -31 -72 -31q-43 0 -72 29q-13 13 -19 33.5t-6.5 37.5t-0.5 62z" />
<glyph unicode="&#xcf;" horiz-adv-x="598" d="M35 1694q0 40 28 68t68 28t68 -28t28 -68t-28 -68.5t-68 -28.5t-68 28.5t-28 68.5zM201 137v1192q0 45 0.5 62t6.5 37t19 32q31 31 72 31q44 0 72 -31q13 -12 19 -32.5t6.5 -37.5t0.5 -61v-1192q0 -45 -0.5 -62t-6.5 -37t-19 -32q-31 -31 -72 -31q-43 0 -72 29 q-13 13 -19 33.5t-6.5 37.5t-0.5 62zM373 1694q0 40 28 68t68 28t68 -28t28 -68t-28 -68.5t-68 -28.5t-68 28.5t-28 68.5z" />
<glyph unicode="&#xd0;" horiz-adv-x="1492" d="M10 733q0 19 6 32t14 19.5t24 10t26.5 4t30.5 0.5h63v504q0 110 27.5 136.5t138.5 26.5h356q61 0 101.5 -2t104 -12.5t112 -30t105 -58t102.5 -93.5q161 -192 161 -535q0 -55 -5 -109.5t-18.5 -127t-41.5 -137.5t-69 -128t-106.5 -114t-148.5 -80q-84 -29 -174 -34 t-504 -5q-24 0 -42 2t-32.5 4.5t-24.5 10.5t-17.5 13.5t-12 20.5t-7 24.5t-4 32t-1.5 36v44.5v480h-63q-21 0 -30.5 0.5t-26 3.5t-24 9.5t-14 19.5t-6.5 32zM371 158h303q145 0 231 29.5t158 115.5q41 49 68 116.5t36.5 136.5t12 103t2.5 66q0 138 -34 252.5t-85 181.5 q-65 85 -151.5 117.5t-249.5 32.5h-291v-510h305q20 0 30.5 -0.5t26 -4t23.5 -10t14 -19.5t6 -32t-6 -32t-13.5 -19.5t-24 -9.5t-26 -3.5t-30.5 -0.5h-305v-510z" />
<glyph unicode="&#xd1;" horiz-adv-x="1492" d="M166 133v1167q0 82 5.5 109.5t33.5 52.5q29 29 78 29q41 0 65 -22.5t70 -92.5l727 -1085l-6 1042q-2 51 0 71.5t12 39.5q8 19 30 33t50 14q40 0 69 -29q19 -17 23 -43t4 -86v-1159q0 -84 -6 -115t-35 -55q-37 -29 -80 -29q-44 0 -69 22.5t-74 96.5l-715 1067l8 -1028 q0 -54 -2 -72.5t-10 -37.5t-31 -33.5t-51 -14.5q-40 0 -69 29q-19 17 -23 43t-4 86zM443 1669q0 56 38.5 102t100.5 46q70 0 162 -41q113 -45 149 -45q25 0 38.5 11t23.5 34q6 15 9.5 22t13.5 16t22 9q19 0 35 -18.5t16 -47.5q0 -15 -4 -32.5t-15 -38.5t-26.5 -37.5 t-42 -27.5t-59.5 -11q-17 0 -28 1.5t-43 11t-89 30.5q-108 43 -150 43q-17 0 -29.5 -9.5t-17.5 -19.5t-14 -33q-16 -32 -35 -32q-21 0 -38 17t-17 50z" />
<glyph unicode="&#xd2;" horiz-adv-x="1599" d="M104 733q0 71 9.5 142t33 147t59.5 143t92 127.5t126 104t167.5 69t211.5 25.5q151 0 272.5 -46.5t198 -122t128 -176.5t72.5 -203t21 -210q0 -114 -23 -220t-76 -205t-130.5 -172t-195.5 -117t-263 -44q-118 0 -218 27t-171 71.5t-127 107t-90.5 130t-57 143.5t-31 144 t-8.5 135zM305 709q0 -131 39.5 -240.5t107 -182.5t157 -113t190.5 -40q47 0 96.5 11t107 35.5t108 70.5t92.5 109.5t66.5 160t24.5 213.5t-24.5 213.5t-66.5 160t-92.5 109.5t-108 70.5t-107 35.5t-96.5 11q-195 0 -342 -147q-44 -42 -75.5 -104t-47 -129t-22.5 -127 t-7 -117zM588 1837q0 10 12 13t49 3h50q71 0 92 -12.5t55 -81.5l51 -100q21 -41 21 -53q0 -13 -12 -25t-33 -12q-34 0 -81 41t-155 159q-33 36 -41 47.5t-8 20.5z" />
<glyph unicode="&#xd3;" horiz-adv-x="1599" d="M104 733q0 71 9.5 142t33 147t59.5 143t92 127.5t126 104t167.5 69t211.5 25.5q151 0 272.5 -46.5t198 -122t128 -176.5t72.5 -203t21 -210q0 -114 -23 -220t-76 -205t-130.5 -172t-195.5 -117t-263 -44q-118 0 -218 27t-171 71.5t-127 107t-90.5 130t-57 143.5t-31 144 t-8.5 135zM305 709q0 -131 39.5 -240.5t107 -182.5t157 -113t190.5 -40q47 0 96.5 11t107 35.5t108 70.5t92.5 109.5t66.5 160t24.5 213.5t-24.5 213.5t-66.5 160t-92.5 109.5t-108 70.5t-107 35.5t-96.5 11q-195 0 -342 -147q-44 -42 -75.5 -104t-47 -129t-22.5 -127 t-7 -117zM686 1606q0 12 21 53l51 100q34 69 55 81.5t92 12.5h50q37 0 49 -3t12 -13q0 -9 -8 -20.5t-41 -47.5q-117 -124 -160 -162t-76 -38q-21 0 -33 12t-12 25z" />
<glyph unicode="&#xd4;" horiz-adv-x="1599" d="M104 733q0 71 9.5 142t33 147t59.5 143t92 127.5t126 104t167.5 69t211.5 25.5q151 0 272.5 -46.5t198 -122t128 -176.5t72.5 -203t21 -210q0 -114 -23 -220t-76 -205t-130.5 -172t-195.5 -117t-263 -44q-118 0 -218 27t-171 71.5t-127 107t-90.5 130t-57 143.5t-31 144 t-8.5 135zM305 709q0 -131 39.5 -240.5t107 -182.5t157 -113t190.5 -40q47 0 96.5 11t107 35.5t108 70.5t92.5 109.5t66.5 160t24.5 213.5t-24.5 213.5t-66.5 160t-92.5 109.5t-108 70.5t-107 35.5t-96.5 11q-195 0 -342 -147q-44 -42 -75.5 -104t-47 -129t-22.5 -127 t-7 -117zM512 1600q0 11 35 53l82 104q43 56 62 75t44 28.5t70 9.5q54 0 80.5 -19t85.5 -94l86 -108q31 -37 31 -49q0 -17 -33 -17q-74 0 -88 4q-16 1 -25.5 10t-46.5 54l-94 118l-92 -118q-35 -46 -51 -57t-52 -11q-78 0 -86 4t-8 13z" />
<glyph unicode="&#xd5;" horiz-adv-x="1599" d="M104 733q0 71 9.5 142t33 147t59.5 143t92 127.5t126 104t167.5 69t211.5 25.5q151 0 272.5 -46.5t198 -122t128 -176.5t72.5 -203t21 -210q0 -114 -23 -220t-76 -205t-130.5 -172t-195.5 -117t-263 -44q-118 0 -218 27t-171 71.5t-127 107t-90.5 130t-57 143.5t-31 144 t-8.5 135zM305 709q0 -131 39.5 -240.5t107 -182.5t157 -113t190.5 -40q47 0 96.5 11t107 35.5t108 70.5t92.5 109.5t66.5 160t24.5 213.5t-24.5 213.5t-66.5 160t-92.5 109.5t-108 70.5t-107 35.5t-96.5 11q-195 0 -342 -147q-44 -42 -75.5 -104t-47 -129t-22.5 -127 t-7 -117zM496 1669q0 56 38.5 102t100.5 46q70 0 162 -41q113 -45 149 -45q25 0 38.5 11t23.5 34q6 15 9.5 22t13.5 16t22 9q19 0 35 -18.5t16 -47.5q0 -15 -4 -32.5t-15 -38.5t-26.5 -37.5t-42 -27.5t-59.5 -11q-17 0 -28 1.5t-43 11t-89 30.5q-108 43 -150 43 q-17 0 -29.5 -9.5t-17.5 -19.5t-14 -33q-16 -32 -35 -32q-21 0 -38 17t-17 50z" />
<glyph unicode="&#xd6;" horiz-adv-x="1599" d="M104 733q0 71 9.5 142t33 147t59.5 143t92 127.5t126 104t167.5 69t211.5 25.5q151 0 272.5 -46.5t198 -122t128 -176.5t72.5 -203t21 -210q0 -114 -23 -220t-76 -205t-130.5 -172t-195.5 -117t-263 -44q-118 0 -218 27t-171 71.5t-127 107t-90.5 130t-57 143.5t-31 144 t-8.5 135zM305 709q0 -131 39.5 -240.5t107 -182.5t157 -113t190.5 -40q47 0 96.5 11t107 35.5t108 70.5t92.5 109.5t66.5 160t24.5 213.5t-24.5 213.5t-66.5 160t-92.5 109.5t-108 70.5t-107 35.5t-96.5 11q-195 0 -342 -147q-44 -42 -75.5 -104t-47 -129t-22.5 -127 t-7 -117zM535 1694q0 40 28 68t68 28t68 -28t28 -68t-28 -68.5t-68 -28.5t-68 28.5t-28 68.5zM873 1694q0 40 28 68t68 28t68 -28t28 -68t-28 -68.5t-68 -28.5t-68 28.5t-28 68.5z" />
<glyph unicode="&#xd7;" horiz-adv-x="1193" d="M162 410l315 313l-315 315l123 123l313 -315l313 313l121 -121l-313 -313l313 -313l-121 -123l-315 315l-315 -315z" />
<glyph unicode="&#xd8;" horiz-adv-x="1599" d="M104 31q0 34 29 63l121 133q-150 215 -150 506q0 72 9.5 143t33 147t59.5 142.5t92 127t126 104t167.5 69t211.5 25.5q289 0 459 -160l96 107q22 23 30.5 31t21.5 15t28 7q23 0 40 -17t17 -36q0 -9 -2 -17.5t-4 -14.5t-6 -13t-6.5 -10t-6.5 -7.5t-4 -5.5l-120 -131 q59 -79 104 -213t45 -289q0 -73 -10 -144.5t-33.5 -148t-59 -143.5t-91 -127.5t-125 -104t-164.5 -69t-207 -25.5q-36 0 -74.5 3.5t-112 16.5t-148.5 48.5t-134 89.5l-96 -106q-30 -33 -43 -42.5t-35 -9.5q-29 0 -43.5 19.5t-14.5 36.5zM305 725q0 -196 82 -352l748 819 q-141 141 -338 141q-59 0 -119.5 -15t-129.5 -57.5t-121 -107.5t-87 -176t-35 -252zM463 272q142 -139 336 -139q39 0 80 7t90.5 26t94.5 47.5t87.5 76t73.5 108t50 147t19 188.5q0 216 -82 359z" />
<glyph unicode="&#xd9;" horiz-adv-x="1492" d="M166 563v764q0 63 4 88.5t23 44.5q31 31 71 31q44 0 72 -31q13 -13 19 -33.5t6.5 -37.5t0.5 -62v-778q0 -39 1 -63.5t8.5 -72.5t21 -81t42.5 -74t69 -65.5t103 -42t143 -17.5q83 0 148 18.5t105 52.5t66.5 73t39 89.5t17 91.5t4.5 89v780q0 63 4 88.5t23 44.5 q31 31 72 31q43 0 71 -31q19 -19 23 -45.5t4 -87.5v-762q0 -590 -563 -590q-303 0 -450.5 136.5t-147.5 451.5zM535 1837q0 10 12 13t49 3h50q71 0 92 -12.5t55 -81.5l51 -100q21 -41 21 -53q0 -13 -12 -25t-33 -12q-34 0 -81 41t-155 159q-33 36 -41 47.5t-8 20.5z" />
<glyph unicode="&#xda;" horiz-adv-x="1492" d="M166 563v764q0 63 4 88.5t23 44.5q31 31 71 31q44 0 72 -31q13 -13 19 -33.5t6.5 -37.5t0.5 -62v-778q0 -39 1 -63.5t8.5 -72.5t21 -81t42.5 -74t69 -65.5t103 -42t143 -17.5q83 0 148 18.5t105 52.5t66.5 73t39 89.5t17 91.5t4.5 89v780q0 63 4 88.5t23 44.5 q31 31 72 31q43 0 71 -31q19 -19 23 -45.5t4 -87.5v-762q0 -590 -563 -590q-303 0 -450.5 136.5t-147.5 451.5zM633 1606q0 12 21 53l51 100q34 69 55 81.5t92 12.5h50q37 0 49 -3t12 -13q0 -9 -8 -20.5t-41 -47.5q-117 -124 -160 -162t-76 -38q-21 0 -33 12t-12 25z" />
<glyph unicode="&#xdb;" horiz-adv-x="1492" d="M166 563v764q0 63 4 88.5t23 44.5q31 31 71 31q44 0 72 -31q13 -13 19 -33.5t6.5 -37.5t0.5 -62v-778q0 -39 1 -63.5t8.5 -72.5t21 -81t42.5 -74t69 -65.5t103 -42t143 -17.5q83 0 148 18.5t105 52.5t66.5 73t39 89.5t17 91.5t4.5 89v780q0 63 4 88.5t23 44.5 q31 31 72 31q43 0 71 -31q19 -19 23 -45.5t4 -87.5v-762q0 -590 -563 -590q-303 0 -450.5 136.5t-147.5 451.5zM459 1600q0 11 35 53l82 104q43 56 62 75t44 28.5t70 9.5q54 0 80.5 -19t85.5 -94l86 -108q31 -37 31 -49q0 -17 -33 -17q-74 0 -88 4q-16 1 -25.5 10t-46.5 54 l-94 118l-92 -118q-35 -46 -51 -57t-52 -11q-78 0 -86 4t-8 13z" />
<glyph unicode="&#xdc;" horiz-adv-x="1492" d="M166 563v764q0 63 4 88.5t23 44.5q31 31 71 31q44 0 72 -31q13 -13 19 -33.5t6.5 -37.5t0.5 -62v-778q0 -39 1 -63.5t8.5 -72.5t21 -81t42.5 -74t69 -65.5t103 -42t143 -17.5q83 0 148 18.5t105 52.5t66.5 73t39 89.5t17 91.5t4.5 89v780q0 63 4 88.5t23 44.5 q31 31 72 31q43 0 71 -31q19 -19 23 -45.5t4 -87.5v-762q0 -590 -563 -590q-303 0 -450.5 136.5t-147.5 451.5zM482 1694q0 40 28 68t68 28t68 -28t28 -68t-28 -68.5t-68 -28.5t-68 28.5t-28 68.5zM820 1694q0 40 28 68t68 28t68 -28t28 -68t-28 -68.5t-68 -28.5t-68 28.5 t-28 68.5z" />
<glyph unicode="&#xdd;" horiz-adv-x="1259" d="M49 1401q0 35 26 62.5t70 27.5q35 0 54.5 -19.5t62.5 -89.5l367 -579l377 586q42 67 60.5 84.5t53.5 17.5q37 0 63.5 -25t26.5 -61q0 -24 -12 -47.5t-39 -63.5l-438 -665v-492q0 -41 -1 -60t-7.5 -40t-20.5 -33q-29 -29 -69 -29t-72 29q-13 12 -19 33t-7 40t-1 60v492 l-422 655q-53 85 -53 117zM516 1606q0 12 21 53l51 100q34 69 55 81.5t92 12.5h50q37 0 49 -3t12 -13q0 -9 -8 -20.5t-41 -47.5q-117 -124 -160 -162t-76 -38q-21 0 -33 12t-12 25z" />
<glyph unicode="&#xde;" horiz-adv-x="1300" d="M178 137v1190q0 41 1 60t6.5 40t17.5 33q31 31 73 31q44 0 72 -31q18 -17 22.5 -45.5t4.5 -85.5v-164h336q108 0 192 -17.5t150 -68.5q74 -56 114.5 -144.5t40.5 -195.5q0 -113 -50 -216t-148 -154q-127 -68 -301 -68h-334v-164v-32t-2 -31t-5.5 -31.5t-10 -26t-16 -22.5 t-24.5 -13.5t-34 -5.5q-49 0 -80 31q-12 12 -17.5 33t-6.5 39.5t-1 58.5zM375 459h282q351 0 351 276q0 120 -72 195q-32 34 -87 52.5t-95.5 22t-96.5 3.5h-282v-549z" />
<glyph unicode="&#xdf;" horiz-adv-x="1087" d="M109 121v938q0 190 77 289q112 143 328 143q91 0 161.5 -25t110.5 -66.5t60 -89t20 -98.5q0 -27 -3.5 -48t-24.5 -71.5t-62 -115.5q-48 -75 -63 -109t-15 -59q0 -33 17.5 -63.5t37 -49t54.5 -45.5q73 -57 120.5 -109t68.5 -96.5t27.5 -76t6.5 -68.5q0 -134 -94 -230 t-234 -96q-124 0 -211.5 70t-87.5 129q0 24 20.5 49t59.5 25q19 0 33 -8t37 -37q67 -84 141 -84q67 0 115.5 51.5t48.5 118.5q0 45 -25.5 89t-64 81t-104.5 88q-80 63 -117 113t-37 110q0 72 90 221q88 142 88 213q0 51 -30.5 85t-68 46.5t-77.5 12.5q-59 0 -102 -19.5 t-66 -48t-36.5 -72t-17 -80t-3.5 -84.5v-923q0 -94 -27 -121q-25 -25 -63 -25q-39 0 -64 25q-12 12 -17.5 31.5t-6 35t-0.5 54.5z" />
<glyph unicode="&#xe0;" d="M86 279q0 50 13.5 92t33 71t52 53.5t59 38.5t67.5 27t63.5 18.5t59.5 12.5q19 4 147.5 27.5t151.5 29.5q41 11 101 31q-1 31 -1.5 47t-3.5 44t-7.5 43.5t-13.5 37.5t-20.5 34.5t-30 27.5t-41.5 22.5t-54.5 12.5t-69.5 5q-104 0 -186 -35t-113 -112q-9 -23 -14 -34 t-15.5 -25.5t-24.5 -20.5t-34 -6q-33 0 -56.5 22t-23.5 54q0 23 9.5 54t40.5 73.5t78 77t132.5 59t194.5 24.5q67 0 122 -7.5t96.5 -19.5t74 -32.5t55 -42t38 -53t24.5 -60t14 -69t6.5 -74t1.5 -80.5q0 -27 -3 -169t-3 -165q0 -99 28 -176q0 -2 6 -19.5t10.5 -37.5t4.5 -35 q0 -27 -25.5 -48.5t-60.5 -21.5q-25 0 -45 15.5t-34 45t-22 53.5t-18 61q-182 -175 -420 -175q-85 0 -152.5 26t-108.5 70t-62 97t-21 111zM268 291q0 -66 51.5 -121t151.5 -55q94 0 185.5 39.5t134.5 113.5q28 48 36.5 114t8.5 171q-73 -27 -119 -37q-56 -13 -161 -33 t-150 -32q-55 -15 -88 -47.5t-41.5 -59.5t-8.5 -53zM365 1454q0 10 12 13t49 3h50q71 0 92 -12.5t55 -81.5l51 -100q21 -41 21 -53q0 -13 -12 -25t-33 -12q-34 0 -81 41t-155 159q-33 36 -41 47.5t-8 20.5z" />
<glyph unicode="&#xe1;" d="M86 279q0 50 13.5 92t33 71t52 53.5t59 38.5t67.5 27t63.5 18.5t59.5 12.5q19 4 147.5 27.5t151.5 29.5q41 11 101 31q-1 31 -1.5 47t-3.5 44t-7.5 43.5t-13.5 37.5t-20.5 34.5t-30 27.5t-41.5 22.5t-54.5 12.5t-69.5 5q-104 0 -186 -35t-113 -112q-9 -23 -14 -34 t-15.5 -25.5t-24.5 -20.5t-34 -6q-33 0 -56.5 22t-23.5 54q0 23 9.5 54t40.5 73.5t78 77t132.5 59t194.5 24.5q67 0 122 -7.5t96.5 -19.5t74 -32.5t55 -42t38 -53t24.5 -60t14 -69t6.5 -74t1.5 -80.5q0 -27 -3 -169t-3 -165q0 -99 28 -176q0 -2 6 -19.5t10.5 -37.5t4.5 -35 q0 -27 -25.5 -48.5t-60.5 -21.5q-25 0 -45 15.5t-34 45t-22 53.5t-18 61q-182 -175 -420 -175q-85 0 -152.5 26t-108.5 70t-62 97t-21 111zM268 291q0 -66 51.5 -121t151.5 -55q94 0 185.5 39.5t134.5 113.5q28 48 36.5 114t8.5 171q-73 -27 -119 -37q-56 -13 -161 -33 t-150 -32q-55 -15 -88 -47.5t-41.5 -59.5t-8.5 -53zM463 1223q0 12 21 53l51 100q34 69 55 81.5t92 12.5h50q37 0 49 -3t12 -13q0 -9 -8 -20.5t-41 -47.5q-117 -124 -160 -162t-76 -38q-21 0 -33 12t-12 25z" />
<glyph unicode="&#xe2;" d="M86 279q0 50 13.5 92t33 71t52 53.5t59 38.5t67.5 27t63.5 18.5t59.5 12.5q19 4 147.5 27.5t151.5 29.5q41 11 101 31q-1 31 -1.5 47t-3.5 44t-7.5 43.5t-13.5 37.5t-20.5 34.5t-30 27.5t-41.5 22.5t-54.5 12.5t-69.5 5q-104 0 -186 -35t-113 -112q-9 -23 -14 -34 t-15.5 -25.5t-24.5 -20.5t-34 -6q-33 0 -56.5 22t-23.5 54q0 23 9.5 54t40.5 73.5t78 77t132.5 59t194.5 24.5q67 0 122 -7.5t96.5 -19.5t74 -32.5t55 -42t38 -53t24.5 -60t14 -69t6.5 -74t1.5 -80.5q0 -27 -3 -169t-3 -165q0 -99 28 -176q0 -2 6 -19.5t10.5 -37.5t4.5 -35 q0 -27 -25.5 -48.5t-60.5 -21.5q-25 0 -45 15.5t-34 45t-22 53.5t-18 61q-182 -175 -420 -175q-85 0 -152.5 26t-108.5 70t-62 97t-21 111zM268 291q0 -66 51.5 -121t151.5 -55q94 0 185.5 39.5t134.5 113.5q28 48 36.5 114t8.5 171q-73 -27 -119 -37q-56 -13 -161 -33 t-150 -32q-55 -15 -88 -47.5t-41.5 -59.5t-8.5 -53zM289 1217q0 11 35 53l82 104q43 56 62 75t44 28.5t70 9.5q54 0 80.5 -19t85.5 -94l86 -108q31 -37 31 -49q0 -17 -33 -17q-74 0 -88 4q-16 1 -25.5 10t-46.5 54l-94 118l-92 -118q-35 -46 -51 -57t-52 -11q-78 0 -86 4 t-8 13z" />
<glyph unicode="&#xe3;" d="M86 279q0 50 13.5 92t33 71t52 53.5t59 38.5t67.5 27t63.5 18.5t59.5 12.5q19 4 147.5 27.5t151.5 29.5q41 11 101 31q-1 31 -1.5 47t-3.5 44t-7.5 43.5t-13.5 37.5t-20.5 34.5t-30 27.5t-41.5 22.5t-54.5 12.5t-69.5 5q-104 0 -186 -35t-113 -112q-9 -23 -14 -34 t-15.5 -25.5t-24.5 -20.5t-34 -6q-33 0 -56.5 22t-23.5 54q0 23 9.5 54t40.5 73.5t78 77t132.5 59t194.5 24.5q67 0 122 -7.5t96.5 -19.5t74 -32.5t55 -42t38 -53t24.5 -60t14 -69t6.5 -74t1.5 -80.5q0 -27 -3 -169t-3 -165q0 -99 28 -176q0 -2 6 -19.5t10.5 -37.5t4.5 -35 q0 -27 -25.5 -48.5t-60.5 -21.5q-25 0 -45 15.5t-34 45t-22 53.5t-18 61q-182 -175 -420 -175q-85 0 -152.5 26t-108.5 70t-62 97t-21 111zM268 291q0 -66 51.5 -121t151.5 -55q94 0 185.5 39.5t134.5 113.5q28 48 36.5 114t8.5 171q-73 -27 -119 -37q-56 -13 -161 -33 t-150 -32q-55 -15 -88 -47.5t-41.5 -59.5t-8.5 -53zM273 1286q0 56 38.5 102t100.5 46q70 0 162 -41q113 -45 149 -45q25 0 38.5 11t23.5 34q6 15 9.5 22t13.5 16t22 9q19 0 35 -18.5t16 -47.5q0 -15 -4 -32.5t-15 -38.5t-26.5 -37.5t-42 -27.5t-59.5 -11q-17 0 -28 1.5 t-43 11t-89 30.5q-108 43 -150 43q-17 0 -29.5 -9.5t-17.5 -19.5t-14 -33q-16 -32 -35 -32q-21 0 -38 17t-17 50z" />
<glyph unicode="&#xe4;" d="M86 279q0 50 13.5 92t33 71t52 53.5t59 38.5t67.5 27t63.5 18.5t59.5 12.5q19 4 147.5 27.5t151.5 29.5q41 11 101 31q-1 31 -1.5 47t-3.5 44t-7.5 43.5t-13.5 37.5t-20.5 34.5t-30 27.5t-41.5 22.5t-54.5 12.5t-69.5 5q-104 0 -186 -35t-113 -112q-9 -23 -14 -34 t-15.5 -25.5t-24.5 -20.5t-34 -6q-33 0 -56.5 22t-23.5 54q0 23 9.5 54t40.5 73.5t78 77t132.5 59t194.5 24.5q67 0 122 -7.5t96.5 -19.5t74 -32.5t55 -42t38 -53t24.5 -60t14 -69t6.5 -74t1.5 -80.5q0 -27 -3 -169t-3 -165q0 -99 28 -176q0 -2 6 -19.5t10.5 -37.5t4.5 -35 q0 -27 -25.5 -48.5t-60.5 -21.5q-25 0 -45 15.5t-34 45t-22 53.5t-18 61q-182 -175 -420 -175q-85 0 -152.5 26t-108.5 70t-62 97t-21 111zM268 291q0 -66 51.5 -121t151.5 -55q94 0 185.5 39.5t134.5 113.5q28 48 36.5 114t8.5 171q-73 -27 -119 -37q-56 -13 -161 -33 t-150 -32q-55 -15 -88 -47.5t-41.5 -59.5t-8.5 -53zM312 1311q0 40 28 68t68 28t68 -28t28 -68t-28 -68.5t-68 -28.5t-68 28.5t-28 68.5zM650 1311q0 40 28 68t68 28t68 -28t28 -68t-28 -68.5t-68 -28.5t-68 28.5t-28 68.5z" />
<glyph unicode="&#xe5;" d="M86 279q0 50 13.5 92t33 71t52 53.5t59 38.5t67.5 27t63.5 18.5t59.5 12.5q19 4 147.5 27.5t151.5 29.5q41 11 101 31q-1 31 -1.5 47t-3.5 44t-7.5 43.5t-13.5 37.5t-20.5 34.5t-30 27.5t-41.5 22.5t-54.5 12.5t-69.5 5q-104 0 -186 -35t-113 -112q-9 -23 -14 -34 t-15.5 -25.5t-24.5 -20.5t-34 -6q-33 0 -56.5 22t-23.5 54q0 23 9.5 54t40.5 73.5t78 77t132.5 59t194.5 24.5q67 0 122 -7.5t96.5 -19.5t74 -32.5t55 -42t38 -53t24.5 -60t14 -69t6.5 -74t1.5 -80.5q0 -27 -3 -169t-3 -165q0 -99 28 -176q0 -2 6 -19.5t10.5 -37.5t4.5 -35 q0 -27 -25.5 -48.5t-60.5 -21.5q-25 0 -45 15.5t-34 45t-22 53.5t-18 61q-182 -175 -420 -175q-85 0 -152.5 26t-108.5 70t-62 97t-21 111zM268 291q0 -66 51.5 -121t151.5 -55q94 0 185.5 39.5t134.5 113.5q28 48 36.5 114t8.5 171q-73 -27 -119 -37q-56 -13 -161 -33 t-150 -32q-55 -15 -88 -47.5t-41.5 -59.5t-8.5 -53zM388 1343q0 79 56 135t134 56q77 0 132.5 -56.5t55.5 -134.5q0 -77 -55.5 -132.5t-134.5 -55.5q-78 0 -133 55.5t-55 132.5zM469 1343q0 -44 32 -75t75 -31q45 0 77 31t32 75q0 45 -32 77t-77 32q-44 0 -75.5 -32.5 t-31.5 -76.5z" />
<glyph unicode="&#xe6;" horiz-adv-x="1835" d="M86 272q0 91 47 159.5t109 96.5q85 38 258 68q102 16 149 27.5t154 42.5v28q-2 88 -5.5 115t-17.5 51q-53 90 -202 90q-48 0 -85 -5.5t-77.5 -20.5t-71.5 -47.5t-49 -81.5q-10 -28 -18 -43t-27 -29t-47 -14q-36 0 -58 24t-22 55q0 38 20 89.5t64 93.5q121 114 360 114 q75 0 135 -11t94 -24t63.5 -37t39 -37t25.5 -36q19 20 33 33t47 36.5t66.5 38t85.5 26t110 11.5q98 0 180.5 -30.5t136.5 -79.5t91.5 -112t54 -127t16.5 -126q0 -34 -9 -56t-20.5 -33.5t-37.5 -17t-43 -6.5t-54 -1h-606q2 -81 19 -148t52.5 -123t97 -87.5t144.5 -31.5 q61 0 110.5 16t78.5 36t54 54.5t35 54.5t23 52q22 48 70 48q25 0 46 -16t21 -56q0 -46 -27.5 -99t-78.5 -103.5t-137.5 -84t-190.5 -33.5q-77 0 -142.5 15.5t-104.5 34t-75.5 50.5t-49.5 48.5t-33 44.5q-217 -193 -455 -193q-74 0 -134.5 18.5t-99 48.5t-64.5 70t-37 79.5 t-11 80.5zM264 285q0 -29 11.5 -58.5t35.5 -58t70 -46.5t106 -18q70 0 135 26.5t111 76.5q70 70 70 209v127q-128 -35 -301 -66q-238 -36 -238 -192zM975 616h596q-2 85 -26.5 149.5t-57.5 98.5t-76.5 54.5t-74 26t-60.5 5.5q-129 0 -211.5 -89.5t-89.5 -244.5z" />
<glyph unicode="&#xe7;" d="M86 528q0 79 13.5 153t49.5 149t91 130t145.5 90t206.5 35q86 0 155.5 -17.5t117 -49t78 -63t56.5 -72.5q37 -56 37 -99q0 -33 -24 -55t-56 -22q-15 0 -24 2.5t-26 19t-36 49.5q-14 23 -22 35.5t-34.5 42t-53 45.5t-71 30.5t-95.5 14.5q-150 0 -240 -110.5t-90 -298.5 q0 -197 87.5 -309.5t238.5 -112.5q86 0 158.5 39.5t113.5 111.5q2 4 14.5 26.5t23.5 42.5t15 25q29 33 60 33t56.5 -23.5t25.5 -58.5q0 -22 -12.5 -58t-45.5 -84t-81 -89t-128.5 -71.5t-177.5 -33.5l-8 -47q85 -5 125 -30q26 -15 45 -47.5t19 -71.5q0 -48 -27.5 -84.5 t-72 -56.5t-93.5 -29.5t-100 -9.5q-127 0 -127 53q0 19 15.5 32t43.5 13q100 0 133 6q9 1 21 4.5t30 12t29.5 25t11.5 38.5q0 21 -16.5 38.5t-31 24.5t-17.5 7l-66 -3q-12 0 -29.5 16.5t-17.5 39.5q0 15 7 26.5t15.5 19t35.5 28.5q-69 8 -126 25.5t-95 38.5t-69.5 50 t-49 53.5t-35.5 55.5q-76 136 -76 325z" />
<glyph unicode="&#xe8;" d="M90 532q0 117 31 216t91.5 175t157.5 119t222 43q86 0 158 -22t120 -56t85 -80t57.5 -91t33.5 -92t17 -78.5t4 -55.5q0 -33 -10.5 -56t-23.5 -34t-38.5 -17t-40.5 -6.5t-45 -0.5h-637q2 -103 30 -180.5t75.5 -122t104 -66t122.5 -21.5q51 0 93.5 12t69.5 27t55.5 45.5 t42 49.5t38.5 57q10 16 16 23.5t23 18.5t37 11q29 0 48.5 -20t19.5 -47q0 -36 -35 -95q-128 -213 -416 -213q-102 0 -186 28t-143 78t-99 120t-59 153t-19 178zM274 618h611q-8 122 -54 201q-36 62 -98.5 98.5t-146.5 36.5q-97 0 -161.5 -46.5t-100.5 -112.5 q-36 -64 -50 -177zM365 1454q0 10 12 13t49 3h50q71 0 92 -12.5t55 -81.5l51 -100q21 -41 21 -53q0 -13 -12 -25t-33 -12q-34 0 -81 41t-155 159q-33 36 -41 47.5t-8 20.5z" />
<glyph unicode="&#xe9;" d="M90 532q0 117 31 216t91.5 175t157.5 119t222 43q86 0 158 -22t120 -56t85 -80t57.5 -91t33.5 -92t17 -78.5t4 -55.5q0 -33 -10.5 -56t-23.5 -34t-38.5 -17t-40.5 -6.5t-45 -0.5h-637q2 -103 30 -180.5t75.5 -122t104 -66t122.5 -21.5q51 0 93.5 12t69.5 27t55.5 45.5 t42 49.5t38.5 57q10 16 16 23.5t23 18.5t37 11q29 0 48.5 -20t19.5 -47q0 -36 -35 -95q-128 -213 -416 -213q-102 0 -186 28t-143 78t-99 120t-59 153t-19 178zM274 618h611q-8 122 -54 201q-36 62 -98.5 98.5t-146.5 36.5q-97 0 -161.5 -46.5t-100.5 -112.5 q-36 -64 -50 -177zM463 1223q0 12 21 53l51 100q34 69 55 81.5t92 12.5h50q37 0 49 -3t12 -13q0 -9 -8 -20.5t-41 -47.5q-117 -124 -160 -162t-76 -38q-21 0 -33 12t-12 25z" />
<glyph unicode="&#xea;" d="M90 532q0 117 31 216t91.5 175t157.5 119t222 43q86 0 158 -22t120 -56t85 -80t57.5 -91t33.5 -92t17 -78.5t4 -55.5q0 -33 -10.5 -56t-23.5 -34t-38.5 -17t-40.5 -6.5t-45 -0.5h-637q2 -103 30 -180.5t75.5 -122t104 -66t122.5 -21.5q51 0 93.5 12t69.5 27t55.5 45.5 t42 49.5t38.5 57q10 16 16 23.5t23 18.5t37 11q29 0 48.5 -20t19.5 -47q0 -36 -35 -95q-128 -213 -416 -213q-102 0 -186 28t-143 78t-99 120t-59 153t-19 178zM274 618h611q-8 122 -54 201q-36 62 -98.5 98.5t-146.5 36.5q-97 0 -161.5 -46.5t-100.5 -112.5 q-36 -64 -50 -177zM289 1217q0 11 35 53l82 104q43 56 62 75t44 28.5t70 9.5q54 0 80.5 -19t85.5 -94l86 -108q31 -37 31 -49q0 -17 -33 -17q-74 0 -88 4q-16 1 -25.5 10t-46.5 54l-94 118l-92 -118q-35 -46 -51 -57t-52 -11q-78 0 -86 4t-8 13z" />
<glyph unicode="&#xeb;" d="M90 532q0 117 31 216t91.5 175t157.5 119t222 43q86 0 158 -22t120 -56t85 -80t57.5 -91t33.5 -92t17 -78.5t4 -55.5q0 -33 -10.5 -56t-23.5 -34t-38.5 -17t-40.5 -6.5t-45 -0.5h-637q2 -103 30 -180.5t75.5 -122t104 -66t122.5 -21.5q51 0 93.5 12t69.5 27t55.5 45.5 t42 49.5t38.5 57q10 16 16 23.5t23 18.5t37 11q29 0 48.5 -20t19.5 -47q0 -36 -35 -95q-128 -213 -416 -213q-102 0 -186 28t-143 78t-99 120t-59 153t-19 178zM274 618h611q-8 122 -54 201q-36 62 -98.5 98.5t-146.5 36.5q-97 0 -161.5 -46.5t-100.5 -112.5 q-36 -64 -50 -177zM312 1311q0 40 28 68t68 28t68 -28t28 -68t-28 -68.5t-68 -28.5t-68 28.5t-28 68.5zM650 1311q0 40 28 68t68 28t68 -28t28 -68t-28 -68.5t-68 -28.5t-68 28.5t-28 68.5z" />
<glyph unicode="&#xec;" horiz-adv-x="491" d="M35 1454q0 10 12 13t49 3h50q71 0 92 -12.5t55 -81.5l51 -100q21 -41 21 -53q0 -13 -12 -25t-33 -12q-34 0 -81 41t-155 159q-33 36 -41 47.5t-8 20.5zM156 121v819q0 53 4 77.5t20 41.5q26 26 68 26q55 0 76 -41q12 -23 12 -104v-819q0 -69 -8 -88q-9 -28 -32 -43 t-50 -15q-25 0 -43 10t-27 23t-13.5 35.5t-5.5 37.5t-1 40z" />
<glyph unicode="&#xed;" horiz-adv-x="491" d="M133 1223q0 12 21 53l51 100q34 69 55 81.5t92 12.5h50q37 0 49 -3t12 -13q0 -9 -8 -20.5t-41 -47.5q-117 -124 -160 -162t-76 -38q-21 0 -33 12t-12 25zM156 121v819q0 53 4 77.5t20 41.5q26 26 68 26q55 0 76 -41q12 -23 12 -104v-819q0 -69 -8 -88q-9 -28 -32 -43 t-50 -15q-25 0 -43 10t-27 23t-13.5 35.5t-5.5 37.5t-1 40z" />
<glyph unicode="&#xee;" horiz-adv-x="491" d="M-41 1217q0 11 35 53l82 104q43 56 62 75t44 28.5t70 9.5q54 0 80.5 -19t85.5 -94l86 -108q31 -37 31 -49q0 -17 -33 -17q-74 0 -88 4q-16 1 -25.5 10t-46.5 54l-94 118l-92 -118q-35 -46 -51 -57t-52 -11q-78 0 -86 4t-8 13zM156 121v819q0 53 4 77.5t20 41.5 q26 26 68 26q55 0 76 -41q12 -23 12 -104v-819q0 -69 -8 -88q-9 -28 -32 -43t-50 -15q-25 0 -43 10t-27 23t-13.5 35.5t-5.5 37.5t-1 40z" />
<glyph unicode="&#xef;" horiz-adv-x="491" d="M-18 1311q0 40 28 68t68 28t68 -28t28 -68t-28 -68.5t-68 -28.5t-68 28.5t-28 68.5zM156 121v819q0 53 4 77.5t20 41.5q26 26 68 26q55 0 76 -41q12 -23 12 -104v-819q0 -69 -8 -88q-9 -28 -32 -43t-50 -15q-25 0 -43 10t-27 23t-13.5 35.5t-5.5 37.5t-1 40zM320 1311 q0 40 28 68t68 28t68 -28t28 -68t-28 -68.5t-68 -28.5t-68 28.5t-28 68.5z" />
<glyph unicode="&#xf0;" horiz-adv-x="1130" d="M74 516q0 123 29.5 220.5t75.5 157t107.5 98.5t120 54t117.5 15q69 0 114.5 -14t98.5 -43q-41 76 -69 118.5t-72 94.5l-184 -87q-43 -20 -64 -20q-17 0 -36 14t-19 39q0 18 10 30.5t21 18.5t43 21l147 67q-22 22 -82 72q-31 29 -31 62q0 26 20 41.5t44 15.5q37 0 90 -41 l94 -86l123 57q54 25 66 25q16 0 34.5 -14t18.5 -39q0 -27 -14.5 -39.5t-57.5 -32.5l-82 -39q157 -181 238.5 -366t81.5 -396q0 -245 -135 -395t-359 -150q-208 0 -342 129q-71 69 -109 164t-38 248zM256 508q0 -77 14.5 -140t36.5 -103t53.5 -69.5t59 -44.5t59.5 -24 t50 -10.5t34 -1.5q37 0 75 9.5t82 37.5t77 72t55 119.5t22 172.5q0 91 -22 163t-55 114.5t-77 70.5t-84 38t-79 10q-65 0 -123.5 -27.5t-95.5 -79.5q-82 -115 -82 -307z" />
<glyph unicode="&#xf1;" horiz-adv-x="1173" d="M152 121v823q0 38 0.5 53t5.5 34t16 30q29 24 64 24q23 0 43 -11.5t26 -26.5q12 -21 15.5 -49t3.5 -95q27 36 50.5 60.5t65 56t97.5 48.5t123 17q184 0 299 -131q25 -28 40 -64.5t21 -80.5t7 -68t1 -63v-557q0 -39 -0.5 -54.5t-6 -35.5t-17.5 -31q-29 -25 -64 -25 q-37 0 -65 25q-17 16 -21 41.5t-4 79.5v506q0 144 -33 200q-28 50 -78.5 76.5t-107.5 26.5q-77 0 -147.5 -40.5t-106.5 -107.5q-27 -48 -38 -108.5t-11 -214.5v-338q0 -51 -5 -78t-22 -43q-29 -25 -63 -25q-35 0 -64 25q-12 11 -17.5 31t-6 35.5t-0.5 54.5zM283 1286 q0 56 38.5 102t100.5 46q70 0 162 -41q113 -45 149 -45q25 0 38.5 11t23.5 34q6 15 9.5 22t13.5 16t22 9q19 0 35 -18.5t16 -47.5q0 -15 -4 -32.5t-15 -38.5t-26.5 -37.5t-42 -27.5t-59.5 -11q-17 0 -28 1.5t-43 11t-89 30.5q-108 43 -150 43q-17 0 -29.5 -9.5t-17.5 -19.5 t-14 -33q-16 -32 -35 -32q-21 0 -38 17t-17 50z" />
<glyph unicode="&#xf2;" horiz-adv-x="1173" d="M86 510q0 276 132.5 425.5t367.5 149.5q103 0 191.5 -32.5t158 -97.5t109.5 -174t40 -251q0 -114 -26.5 -207.5t-72.5 -157t-109.5 -107t-136 -63.5t-154.5 -20q-122 0 -218.5 42.5t-157 116.5t-92.5 170t-32 206zM268 530q0 -192 85 -303.5t235 -111.5q149 0 232 112 t83 303q0 196 -85.5 306t-229.5 110q-150 0 -235 -113t-85 -303zM375 1454q0 10 12 13t49 3h50q71 0 92 -12.5t55 -81.5l51 -100q21 -41 21 -53q0 -13 -12 -25t-33 -12q-34 0 -81 41t-155 159q-33 36 -41 47.5t-8 20.5z" />
<glyph unicode="&#xf3;" horiz-adv-x="1173" d="M86 510q0 276 132.5 425.5t367.5 149.5q103 0 191.5 -32.5t158 -97.5t109.5 -174t40 -251q0 -114 -26.5 -207.5t-72.5 -157t-109.5 -107t-136 -63.5t-154.5 -20q-122 0 -218.5 42.5t-157 116.5t-92.5 170t-32 206zM268 530q0 -192 85 -303.5t235 -111.5q149 0 232 112 t83 303q0 196 -85.5 306t-229.5 110q-150 0 -235 -113t-85 -303zM473 1223q0 12 21 53l51 100q34 69 55 81.5t92 12.5h50q37 0 49 -3t12 -13q0 -9 -8 -20.5t-41 -47.5q-117 -124 -160 -162t-76 -38q-21 0 -33 12t-12 25z" />
<glyph unicode="&#xf4;" horiz-adv-x="1173" d="M86 510q0 276 132.5 425.5t367.5 149.5q103 0 191.5 -32.5t158 -97.5t109.5 -174t40 -251q0 -114 -26.5 -207.5t-72.5 -157t-109.5 -107t-136 -63.5t-154.5 -20q-122 0 -218.5 42.5t-157 116.5t-92.5 170t-32 206zM268 530q0 -192 85 -303.5t235 -111.5q149 0 232 112 t83 303q0 196 -85.5 306t-229.5 110q-150 0 -235 -113t-85 -303zM299 1217q0 11 35 53l82 104q43 56 62 75t44 28.5t70 9.5q54 0 80.5 -19t85.5 -94l86 -108q31 -37 31 -49q0 -17 -33 -17q-74 0 -88 4q-16 1 -25.5 10t-46.5 54l-94 118l-92 -118q-35 -46 -51 -57t-52 -11 q-78 0 -86 4t-8 13z" />
<glyph unicode="&#xf5;" horiz-adv-x="1173" d="M86 510q0 276 132.5 425.5t367.5 149.5q103 0 191.5 -32.5t158 -97.5t109.5 -174t40 -251q0 -114 -26.5 -207.5t-72.5 -157t-109.5 -107t-136 -63.5t-154.5 -20q-122 0 -218.5 42.5t-157 116.5t-92.5 170t-32 206zM268 530q0 -192 85 -303.5t235 -111.5q149 0 232 112 t83 303q0 196 -85.5 306t-229.5 110q-150 0 -235 -113t-85 -303zM283 1286q0 56 38.5 102t100.5 46q70 0 162 -41q113 -45 149 -45q25 0 38.5 11t23.5 34q6 15 9.5 22t13.5 16t22 9q19 0 35 -18.5t16 -47.5q0 -15 -4 -32.5t-15 -38.5t-26.5 -37.5t-42 -27.5t-59.5 -11 q-17 0 -28 1.5t-43 11t-89 30.5q-108 43 -150 43q-17 0 -29.5 -9.5t-17.5 -19.5t-14 -33q-16 -32 -35 -32q-21 0 -38 17t-17 50z" />
<glyph unicode="&#xf6;" horiz-adv-x="1173" d="M86 510q0 276 132.5 425.5t367.5 149.5q103 0 191.5 -32.5t158 -97.5t109.5 -174t40 -251q0 -114 -26.5 -207.5t-72.5 -157t-109.5 -107t-136 -63.5t-154.5 -20q-122 0 -218.5 42.5t-157 116.5t-92.5 170t-32 206zM268 530q0 -192 85 -303.5t235 -111.5q149 0 232 112 t83 303q0 196 -85.5 306t-229.5 110q-150 0 -235 -113t-85 -303zM322 1311q0 40 28 68t68 28t68 -28t28 -68t-28 -68.5t-68 -28.5t-68 28.5t-28 68.5zM660 1311q0 40 28 68t68 28t68 -28t28 -68t-28 -68.5t-68 -28.5t-68 28.5t-28 68.5z" />
<glyph unicode="&#xf7;" horiz-adv-x="1193" d="M113 639v168h970v-168h-970zM494 319v205h206v-205h-206zM494 922v204h206v-204h-206z" />
<glyph unicode="&#xf8;" horiz-adv-x="1173" d="M86 37q0 20 35 59l63 72q-40 57 -68 151t-28 201q0 300 160 447q129 118 338 118q192 0 321 -104l56 66q18 23 30.5 30.5t30.5 7.5q27 0 44 -18.5t17 -36.5q0 -26 -32 -63l-64 -72q36 -48 66 -146.5t30 -213.5q0 -120 -28 -216t-75 -159.5t-111.5 -105.5t-134.5 -60.5 t-148 -18.5q-84 0 -170.5 26t-151.5 79l-57 -64q-20 -24 -31.5 -32.5t-30.5 -8.5q-25 0 -43 19.5t-18 42.5zM270 530q0 -122 39 -223l490 553q-86 86 -213 86q-148 0 -232 -112.5t-84 -303.5zM375 201q77 -86 213 -86q147 0 231 111t84 304q0 119 -39 226z" />
<glyph unicode="&#xf9;" horiz-adv-x="1173" d="M141 373v565q0 38 1 55t6.5 36t17.5 30q26 26 65 26q37 0 64 -24q12 -12 17.5 -32t6 -35.5t0.5 -55.5v-496q0 -48 1 -74.5t9.5 -64.5t24.5 -65q30 -50 81.5 -78.5t107.5 -28.5q77 0 148 41t106 107q16 31 24 54t15.5 92t7.5 181v332q0 39 0.5 54.5t6 35.5t17.5 31 q30 26 64 26t65 -24q17 -17 21 -42.5t4 -80.5v-821q0 -36 -1 -52.5t-6.5 -35t-17.5 -29.5q-25 -25 -61 -25q-25 0 -45 12t-27 27q-14 34 -14 146q-23 -30 -37.5 -46.5t-48 -47t-66 -47t-84 -30.5t-108.5 -14q-94 0 -184 39t-129 117q-32 63 -42 116.5t-10 125.5zM375 1454 q0 10 12 13t49 3h50q71 0 92 -12.5t55 -81.5l51 -100q21 -41 21 -53q0 -13 -12 -25t-33 -12q-34 0 -81 41t-155 159q-33 36 -41 47.5t-8 20.5z" />
<glyph unicode="&#xfa;" horiz-adv-x="1173" d="M141 373v565q0 38 1 55t6.5 36t17.5 30q26 26 65 26q37 0 64 -24q12 -12 17.5 -32t6 -35.5t0.5 -55.5v-496q0 -48 1 -74.5t9.5 -64.5t24.5 -65q30 -50 81.5 -78.5t107.5 -28.5q77 0 148 41t106 107q16 31 24 54t15.5 92t7.5 181v332q0 39 0.5 54.5t6 35.5t17.5 31 q30 26 64 26t65 -24q17 -17 21 -42.5t4 -80.5v-821q0 -36 -1 -52.5t-6.5 -35t-17.5 -29.5q-25 -25 -61 -25q-25 0 -45 12t-27 27q-14 34 -14 146q-23 -30 -37.5 -46.5t-48 -47t-66 -47t-84 -30.5t-108.5 -14q-94 0 -184 39t-129 117q-32 63 -42 116.5t-10 125.5zM473 1223 q0 12 21 53l51 100q34 69 55 81.5t92 12.5h50q37 0 49 -3t12 -13q0 -9 -8 -20.5t-41 -47.5q-117 -124 -160 -162t-76 -38q-21 0 -33 12t-12 25z" />
<glyph unicode="&#xfb;" horiz-adv-x="1173" d="M141 373v565q0 38 1 55t6.5 36t17.5 30q26 26 65 26q37 0 64 -24q12 -12 17.5 -32t6 -35.5t0.5 -55.5v-496q0 -48 1 -74.5t9.5 -64.5t24.5 -65q30 -50 81.5 -78.5t107.5 -28.5q77 0 148 41t106 107q16 31 24 54t15.5 92t7.5 181v332q0 39 0.5 54.5t6 35.5t17.5 31 q30 26 64 26t65 -24q17 -17 21 -42.5t4 -80.5v-821q0 -36 -1 -52.5t-6.5 -35t-17.5 -29.5q-25 -25 -61 -25q-25 0 -45 12t-27 27q-14 34 -14 146q-23 -30 -37.5 -46.5t-48 -47t-66 -47t-84 -30.5t-108.5 -14q-94 0 -184 39t-129 117q-32 63 -42 116.5t-10 125.5zM299 1217 q0 11 35 53l82 104q43 56 62 75t44 28.5t70 9.5q54 0 80.5 -19t85.5 -94l86 -108q31 -37 31 -49q0 -17 -33 -17q-74 0 -88 4q-16 1 -25.5 10t-46.5 54l-94 118l-92 -118q-35 -46 -51 -57t-52 -11q-78 0 -86 4t-8 13z" />
<glyph unicode="&#xfc;" horiz-adv-x="1173" d="M141 373v565q0 38 1 55t6.5 36t17.5 30q26 26 65 26q37 0 64 -24q12 -12 17.5 -32t6 -35.5t0.5 -55.5v-496q0 -48 1 -74.5t9.5 -64.5t24.5 -65q30 -50 81.5 -78.5t107.5 -28.5q77 0 148 41t106 107q16 31 24 54t15.5 92t7.5 181v332q0 39 0.5 54.5t6 35.5t17.5 31 q30 26 64 26t65 -24q17 -17 21 -42.5t4 -80.5v-821q0 -36 -1 -52.5t-6.5 -35t-17.5 -29.5q-25 -25 -61 -25q-25 0 -45 12t-27 27q-14 34 -14 146q-23 -30 -37.5 -46.5t-48 -47t-66 -47t-84 -30.5t-108.5 -14q-94 0 -184 39t-129 117q-32 63 -42 116.5t-10 125.5zM322 1311 q0 40 28 68t68 28t68 -28t28 -68t-28 -68.5t-68 -28.5t-68 28.5t-28 68.5zM660 1311q0 40 28 68t68 28t68 -28t28 -68t-28 -68.5t-68 -28.5t-68 28.5t-28 68.5z" />
<glyph unicode="&#xfd;" horiz-adv-x="1044" d="M45 1004q0 31 25.5 56t62.5 25q21 0 36 -6.5t27 -24.5t17.5 -30.5t17.5 -42.5l291 -793l301 783q28 72 44.5 93t54.5 21q36 0 57.5 -24.5t21.5 -48.5t-24 -88l-426 -1092q-58 -145 -123.5 -203.5t-187.5 -58.5q-172 0 -172 92q0 28 18 50t51 22q7 0 45.5 -3t44.5 -3 q58 0 89.5 33.5t58.5 97.5l55 141l-362 920q-23 64 -23 84zM409 1223q0 12 21 53l51 100q34 69 55 81.5t92 12.5h50q37 0 49 -3t12 -13q0 -9 -8 -20.5t-41 -47.5q-117 -124 -160 -162t-76 -38q-21 0 -33 12t-12 25z" />
<glyph unicode="&#xfe;" horiz-adv-x="1259" d="M152 -281v1622q0 41 0.5 56.5t5.5 34.5t16 30q29 29 68 29q36 0 65 -29q12 -12 17 -31.5t5.5 -32.5t0.5 -57v-391q23 24 37 37.5t43.5 35t56.5 33t68 20.5t88 9q145 0 249 -75.5t152.5 -197t48.5 -273.5q0 -137 -40 -247.5t-106.5 -178t-147 -103t-167.5 -35.5 q-54 0 -99 11.5t-81.5 36.5t-54 41t-47.5 47v-392v-13q0 -48 -3.5 -69.5t-19.5 -37.5q-29 -29 -65 -29q-40 0 -66 29q-17 16 -20.5 39.5t-3.5 80.5zM311 524q0 -183 66 -284q83 -125 221 -125q125 0 213 108q80 100 80 316q0 109 -25.5 191.5t-68.5 127.5t-91 66.5 t-100 21.5q-128 0 -211.5 -116.5t-83.5 -305.5z" />
<glyph unicode="&#xff;" horiz-adv-x="1044" d="M45 1004q0 31 25.5 56t62.5 25q21 0 36 -6.5t27 -24.5t17.5 -30.5t17.5 -42.5l291 -793l301 783q28 72 44.5 93t54.5 21q36 0 57.5 -24.5t21.5 -48.5t-24 -88l-426 -1092q-58 -145 -123.5 -203.5t-187.5 -58.5q-172 0 -172 92q0 28 18 50t51 22q7 0 45.5 -3t44.5 -3 q58 0 89.5 33.5t58.5 97.5l55 141l-362 920q-23 64 -23 84zM258 1311q0 40 28 68t68 28t68 -28t28 -68t-28 -68.5t-68 -28.5t-68 28.5t-28 68.5zM596 1311q0 40 28 68t68 28t68 -28t28 -68t-28 -68.5t-68 -28.5t-68 28.5t-28 68.5z" />
<glyph unicode="&#x152;" horiz-adv-x="2068" d="M100 731q0 356 158.5 558t431.5 202q75 0 140.5 -16.5t107 -37.5t81 -54.5t56.5 -53.5t39 -49v37v60t4.5 39.5t9.5 28t20 13t32 8t49 0.5h629q28 0 40 -0.5t35 -4.5t34 -11.5t20.5 -23.5t9.5 -40q0 -22 -8 -37.5t-18 -23.5t-30.5 -11.5t-32 -4t-36.5 -0.5h-14h-572v-475 h522q27 0 38.5 -0.5t34.5 -4t33.5 -11t20 -23.5t9.5 -39q0 -24 -9 -40t-19.5 -23.5t-33.5 -11.5t-34.5 -4.5t-39.5 -0.5h-522v-518h604q27 0 38.5 -0.5t34.5 -4.5t33.5 -11.5t19.5 -23.5t9 -40q0 -23 -9 -38.5t-19.5 -23.5t-33 -11.5t-34 -4t-39.5 -0.5h-698q-23 0 -38 5.5 t-23 12t-12 24.5t-4.5 31.5t-0.5 43.5v69q-23 -30 -38.5 -49t-55 -53.5t-80.5 -55t-106 -37t-140 -16.5q-275 0 -434.5 203t-159.5 553zM301 733q0 -251 80 -395q53 -95 140.5 -150t201.5 -55q102 0 189 49.5t132 149.5q18 40 35 122t17 187v211q0 53 -5 101t-18.5 106 t-40.5 104t-66.5 86t-102.5 62t-142 22q-68 0 -125 -18t-97.5 -45.5t-73 -70t-52.5 -82.5t-35 -92.5t-21.5 -90t-10.5 -85t-4.5 -68t-0.5 -48.5z" />
<glyph unicode="&#x153;" horiz-adv-x="1941" d="M96 526q0 41 5 85t19 100.5t36 107t61 100.5t88.5 86t123 58t161.5 22q247 0 399 -198q81 114 176 156t211 42q105 0 190 -33t137 -84.5t87 -118t49 -128.5t14 -121q0 -26 -5.5 -44.5t-18.5 -30t-24.5 -18t-34.5 -9.5t-37.5 -3.5t-42.5 -0.5h-611q1 -27 3 -47t10 -63.5 t19.5 -76.5t35.5 -73.5t55 -66.5t79.5 -44.5t107.5 -18.5q41 0 77.5 8t62 18.5t50 30t37.5 32.5t29 36.5t20 31t14 26.5q11 22 18.5 33t22.5 20.5t35 9.5q29 0 45.5 -20t16.5 -47q0 -19 -10 -51t-40 -78t-75 -85t-124 -66.5t-177 -27.5q-88 0 -159 18.5t-118 52t-73 60.5 t-52 64q-34 -40 -66.5 -69.5t-80.5 -60.5t-112 -48t-138 -17q-118 0 -213.5 44t-156.5 119.5t-93.5 175t-32.5 212.5zM274 530q0 -182 84.5 -298.5t239.5 -116.5q133 0 221 105.5t88 307.5q0 33 -3.5 68.5t-14 86.5t-32.5 94.5t-54.5 83t-86.5 62.5t-122 23 q-152 0 -236 -116t-84 -300zM1077 614h598q-7 98 -24 147q-12 36 -33 68q-32 50 -96 85.5t-144 35.5q-118 0 -206.5 -85.5t-94.5 -250.5z" />
<glyph unicode="&#x178;" horiz-adv-x="1259" d="M49 1401q0 35 26 62.5t70 27.5q35 0 54.5 -19.5t62.5 -89.5l367 -579l377 586q42 67 60.5 84.5t53.5 17.5q37 0 63.5 -25t26.5 -61q0 -24 -12 -47.5t-39 -63.5l-438 -665v-492q0 -41 -1 -60t-7.5 -40t-20.5 -33q-29 -29 -69 -29t-72 29q-13 12 -19 33t-7 40t-1 60v492 l-422 655q-53 85 -53 117zM365 1694q0 40 28 68t68 28t68 -28t28 -68t-28 -68.5t-68 -28.5t-68 28.5t-28 68.5zM703 1694q0 40 28 68t68 28t68 -28t28 -68t-28 -68.5t-68 -28.5t-68 28.5t-28 68.5z" />
<glyph unicode="&#x2c6;" horiz-adv-x="681" d="M53 1217q0 11 35 53l82 104q43 56 62 75t44 28.5t70 9.5q54 0 80.5 -19t85.5 -94l86 -108q31 -37 31 -49q0 -17 -33 -17q-74 0 -88 4q-16 1 -25.5 10t-46.5 54l-94 118l-92 -118q-35 -46 -51 -57t-52 -11q-78 0 -86 4t-8 13z" />
<glyph unicode="&#x2dc;" horiz-adv-x="681" d="M37 1286q0 56 38.5 102t100.5 46q70 0 162 -41q113 -45 149 -45q25 0 38.5 11t23.5 34q6 15 9.5 22t13.5 16t22 9q19 0 35 -18.5t16 -47.5q0 -15 -4 -32.5t-15 -38.5t-26.5 -37.5t-42 -27.5t-59.5 -11q-17 0 -28 1.5t-43 11t-89 30.5q-107 43 -150 43q-17 0 -29.5 -9.5 t-17.5 -19.5t-14 -33q-16 -32 -35 -32q-21 0 -38 17t-17 50z" />
<glyph unicode="&#x2000;" horiz-adv-x="958" />
<glyph unicode="&#x2001;" horiz-adv-x="1917" />
<glyph unicode="&#x2002;" horiz-adv-x="958" />
<glyph unicode="&#x2003;" horiz-adv-x="1917" />
<glyph unicode="&#x2004;" horiz-adv-x="639" />
<glyph unicode="&#x2005;" horiz-adv-x="479" />
<glyph unicode="&#x2006;" horiz-adv-x="319" />
<glyph unicode="&#x2007;" horiz-adv-x="319" />
<glyph unicode="&#x2008;" horiz-adv-x="239" />
<glyph unicode="&#x2009;" horiz-adv-x="383" />
<glyph unicode="&#x200a;" horiz-adv-x="106" />
<glyph unicode="&#x2010;" horiz-adv-x="681" d="M43 512q0 24 9.5 41t21 25t34 12.5t36.5 5t40 0.5h314q25 0 39 -0.5t36.5 -5t34.5 -12.5t21.5 -25t9.5 -41t-9.5 -41t-21 -25t-34 -12.5t-36.5 -5t-40 -0.5h-314q-25 0 -39 0.5t-36.5 5t-34.5 12.5t-21.5 25t-9.5 41z" />
<glyph unicode="&#x2011;" horiz-adv-x="681" d="M43 512q0 24 9.5 41t21 25t34 12.5t36.5 5t40 0.5h314q25 0 39 -0.5t36.5 -5t34.5 -12.5t21.5 -25t9.5 -41t-9.5 -41t-21 -25t-34 -12.5t-36.5 -5t-40 -0.5h-314q-25 0 -39 0.5t-36.5 5t-34.5 12.5t-21.5 25t-9.5 41z" />
<glyph unicode="&#x2012;" horiz-adv-x="681" d="M43 512q0 24 9.5 41t21 25t34 12.5t36.5 5t40 0.5h314q25 0 39 -0.5t36.5 -5t34.5 -12.5t21.5 -25t9.5 -41t-9.5 -41t-21 -25t-34 -12.5t-36.5 -5t-40 -0.5h-314q-25 0 -39 0.5t-36.5 5t-34.5 12.5t-21.5 25t-9.5 41z" />
<glyph unicode="&#x2013;" horiz-adv-x="1024" d="M-12 446v132h1048v-132h-1048z" />
<glyph unicode="&#x2014;" horiz-adv-x="2048" d="M-12 446v132h2072v-132h-2072z" />
<glyph unicode="&#x2018;" horiz-adv-x="491" d="M127 1190q0 119 55 211t117 92q20 0 33.5 -15.5t13.5 -35.5q0 -12 -5 -22t-11.5 -16.5t-24.5 -23.5q-51 -51 -53 -129q54 -1 86.5 -33.5t32.5 -78.5q0 -50 -35.5 -83.5t-83.5 -33.5q-60 0 -92.5 45.5t-32.5 122.5z" />
<glyph unicode="&#x2019;" horiz-adv-x="491" d="M127 1374q0 50 35.5 83.5t83.5 33.5q60 0 92.5 -45.5t32.5 -122.5q0 -119 -55 -211t-117 -92q-20 0 -33.5 15.5t-13.5 35.5q0 12 5 22t11.5 16.5t24.5 23.5q51 51 53 129q-54 1 -86.5 33.5t-32.5 78.5z" />
<glyph unicode="&#x201a;" horiz-adv-x="491" d="M127 88q0 50 35.5 83.5t83.5 33.5q60 0 92.5 -45.5t32.5 -122.5q0 -119 -55 -211t-117 -92q-20 0 -33.5 15.5t-13.5 35.5q0 12 5.5 22t10.5 15t25 24q51 51 53 129q-54 1 -86.5 34t-32.5 79z" />
<glyph unicode="&#x201c;" horiz-adv-x="854" d="M119 1188q0 119 55 211t117 92q20 0 33.5 -15.5t13.5 -35.5q0 -12 -5 -22t-11.5 -16.5t-24.5 -23.5q-51 -51 -53 -129q54 -1 86 -33.5t32 -78.5q0 -50 -35 -83.5t-83 -33.5q-60 0 -92.5 45.5t-32.5 122.5zM500 1188q0 119 55 211t117 92q20 0 33.5 -15.5t13.5 -35.5 q0 -12 -5 -22t-11.5 -16.5t-24.5 -23.5q-51 -51 -53 -129q54 -1 86 -33.5t32 -78.5q0 -50 -35 -83.5t-83 -33.5q-60 0 -92.5 45.5t-32.5 122.5z" />
<glyph unicode="&#x201d;" horiz-adv-x="854" d="M113 1374q0 50 35 83.5t83 33.5q60 0 92.5 -45.5t32.5 -122.5q0 -119 -55 -211t-117 -92q-20 0 -33.5 15.5t-13.5 35.5q0 12 5 22t11.5 16.5t24.5 23.5q51 51 53 129q-54 1 -86 33.5t-32 78.5zM494 1374q0 50 35 83.5t83 33.5q60 0 92.5 -45.5t32.5 -122.5 q0 -119 -55 -211t-117 -92q-20 0 -33.5 15.5t-13.5 35.5q0 12 5 22t11.5 16.5t24.5 23.5q51 51 53 129q-54 1 -86 33.5t-32 78.5z" />
<glyph unicode="&#x201e;" horiz-adv-x="854" d="M115 88q0 50 34.5 83.5t81.5 33.5q60 0 92.5 -45.5t32.5 -122.5q0 -119 -54.5 -211t-115.5 -92q-21 0 -35 15.5t-14 35.5q0 12 5.5 22t10.5 15t25 24q53 53 55 129q-54 1 -86 34t-32 79zM494 88q0 50 35 83.5t83 33.5q60 0 92.5 -45.5t32.5 -122.5q0 -119 -55 -211 t-117 -92q-20 0 -33.5 15.5t-13.5 35.5q0 12 5.5 22t10.5 15t25 24q51 51 53 129q-54 1 -86 34t-32 79z" />
<glyph unicode="&#x2022;" horiz-adv-x="724" d="M109 717q0 106 74.5 181t178.5 75t179 -75t75 -181q0 -104 -75 -178t-179 -74t-178.5 74t-74.5 178z" />
<glyph unicode="&#x2026;" horiz-adv-x="2048" d="M227 88q0 47 33.5 80t79.5 33t79.5 -33t33.5 -80q0 -46 -33.5 -79.5t-79.5 -33.5q-47 0 -80 33.5t-33 79.5zM911 88q0 47 33.5 80t79.5 33t79.5 -33t33.5 -80q0 -46 -33.5 -79.5t-79.5 -33.5q-47 0 -80 33.5t-33 79.5zM1595 88q0 47 33.5 80t79.5 33t79.5 -33t33.5 -80 q0 -46 -33.5 -79.5t-79.5 -33.5q-47 0 -80 33.5t-33 79.5z" />
<glyph unicode="&#x202f;" horiz-adv-x="383" />
<glyph unicode="&#x2039;" horiz-adv-x="724" d="M162 516q0 18 37 78l204 324q41 63 78 63q28 0 48 -18.5t20 -44.5q0 -21 -29 -66l-201 -334l205 -338q25 -45 25 -63q0 -25 -19.5 -43.5t-44.5 -18.5q-22 0 -39 12t-45 56l-202 319q-37 62 -37 74z" />
<glyph unicode="&#x203a;" horiz-adv-x="724" d="M176 117q0 18 25 63l205 338l-201 334q-3 5 -8.5 14.5t-8 14.5l-6 12t-5 13t-1.5 12q0 26 20 44.5t48 18.5q37 0 78 -63l204 -324q37 -60 37 -78q0 -12 -37 -74l-202 -319q-28 -44 -45 -56t-39 -12q-25 0 -44.5 18.5t-19.5 43.5z" />
<glyph unicode="&#x205f;" horiz-adv-x="479" />
<glyph unicode="&#x20ac;" horiz-adv-x="1130" d="M2 598q0 70 88 70h10q0 3 -1 25.5t-1 25.5q0 4 1 28.5t1 28.5h-6q-18 0 -31 2t-28 8t-23 21t-8 37q0 41 25 55t67 14h19q20 112 65.5 204.5t106.5 156t136 107.5t155.5 64.5t164.5 20.5q139 0 249 -44t110 -109q0 -35 -18.5 -53.5t-43.5 -18.5q-17 0 -37.5 7t-44 18.5 t-28.5 13.5q-85 33 -176 33q-108 0 -200 -42.5t-160.5 -134.5t-94.5 -223h621q43 0 68.5 -15t25.5 -58q0 -34 -27 -49t-65 -15h-639q0 -4 -1 -29t-1 -30q0 -3 1 -24.5t1 -24.5h581q101 0 101 -70q0 -66 -95 -66h-573q37 -193 162.5 -298t285.5 -105q70 0 121.5 13t118.5 44 q37 15 49 15q32 0 50 -19.5t18 -50.5q0 -43 -43 -76t-104.5 -49t-113.5 -23.5t-87 -7.5q-140 0 -256.5 47t-193.5 127t-125 177t-66 206h-21h-21t-22.5 3.5t-24 10t-15.5 20t-7 32.5z" />
<glyph unicode="&#x2122;" horiz-adv-x="2048" d="M225 1346v120h666v-120h-266v-695h-136v695h-264zM983 651v815h201l205 -651l198 651h197v-815h-125v684l-209 -684h-123l-219 695v-695h-125z" />
<glyph unicode="&#x25fc;" horiz-adv-x="1085" d="M0 0v1085h1085v-1085h-1085z" />
</font>
</defs>
</svg>
